<svg width="62" height="60" viewBox="0 0 62 60" fill="none" xmlns="http://www.w3.org/2000/svg">
<path d="M34.61 37.9991C37.6455 34.2788 41.7135 32.3477 46.5151 32.3477C51.6372 32.3477 56.1737 36.3997 58.9643 40.9757C60.4348 43.3869 59.5712 46.4926 57.0608 47.7866C53.9009 49.4156 50.3155 50.3353 46.5151 50.3353C44.7369 50.3353 43.0768 50.1483 41.3431 49.7528M34.61 37.9991C30.6577 34.879 26.3143 33.3712 21.2789 33.3712C13.1552 33.3712 6.08362 37.8741 2.42598 46.2406C1.37001 48.656 2.2902 51.4566 4.54282 52.8259C9.422 55.7919 15.1509 57.5 21.2789 57.5C28.7398 57.5 35.609 54.968 41.0735 50.7167C41.3659 50.4892 41.4768 50.0983 41.3431 49.7528M34.61 37.9991C37.0202 41.0323 39.9458 46.1394 41.3431 49.7528M32.0306 13.247C32.0306 19.1824 27.2169 23.9941 21.2789 23.9941C15.3408 23.9941 10.5271 19.1824 10.5271 13.247C10.5271 7.31161 15.3408 2.5 21.2789 2.5C27.2169 2.5 32.0306 7.31161 32.0306 13.247ZM54.1949 17.3411C54.1949 21.5807 50.7565 25.0176 46.5151 25.0176C42.2737 25.0176 38.8353 21.5807 38.8353 17.3411C38.8353 13.1015 42.2737 9.66469 46.5151 9.66469C50.7565 9.66469 54.1949 13.1015 54.1949 17.3411Z" stroke="white" stroke-width="3.75" stroke-linecap="round" stroke-linejoin="round"/>
</svg>
