<svg width="48" height="48" viewBox="0 0 48 48" fill="none" xmlns="http://www.w3.org/2000/svg">
<path d="M10 38V42M38 38V42" stroke="white" stroke-width="3" stroke-linecap="round" stroke-linejoin="round"/>
<path d="M4 22C4 16.3431 4 13.5147 5.75736 11.7574C7.51472 10 10.3431 10 16 10H32C37.6568 10 40.4852 10 42.2426 11.7574C44 13.5147 44 16.3431 44 22V26C44 31.6568 44 34.4852 42.2426 36.2426C40.4852 38 37.6568 38 32 38H16C10.3431 38 7.51472 38 5.75736 36.2426C4 34.4852 4 31.6568 4 26V22Z" stroke="white" stroke-width="3"/>
<path d="M20 10L18.9172 7.22691C18.8625 7.08691 18.8351 7.01691 18.8022 6.94843C18.7693 6.87995 18.7334 6.81795 18.6618 6.69393C18.2979 6.06451 18.0739 5.72571 17.682 5.50135C16.5144 4.83289 13.4856 4.83289 12.318 5.50135C11.9261 5.72571 11.7021 6.06451 11.3382 6.69395C11.2666 6.81795 11.2307 6.87995 11.1978 6.94843C11.1649 7.01691 11.1375 7.08691 11.0828 7.22691L10 10" stroke="white" stroke-width="3"/>
<path d="M13.0098 19.9805V28.0111M34.9966 20.0255V27.9664M18.9766 21.48H19.0139M18.9766 26.4926H19.0139M26.0148 27.9664H28.9686C29.5209 27.9664 29.9686 27.5187 29.9686 26.9664V21.0255C29.9686 20.4732 29.5209 20.0255 28.9686 20.0255H26.0148C25.4625 20.0255 25.0148 20.4732 25.0148 21.0255V26.9664C25.0148 27.5187 25.4625 27.9664 26.0148 27.9664Z" stroke="white" stroke-width="3" stroke-linecap="round" stroke-linejoin="round"/>
</svg>
