<svg width="1594" height="291" viewBox="0 0 1594 291" fill="none" xmlns="http://www.w3.org/2000/svg">
<path d="M41.5514 289.524C61.3636 289.742 97.4943 284.616 123.419 277.915C170.676 265.652 207.576 246.272 235.642 218.969V218.967C262.519 192.875 281.939 158.677 294.189 115.851C301.423 90.5502 306.99 54.1638 306.347 37.122C306.256 34.7245 306.153 33.2756 305.903 31.946C305.655 30.6215 305.257 29.3918 304.543 27.435C302.136 20.7845 299.712 17.1353 294.452 12.1216C289.243 7.20032 285.444 4.96142 278.294 2.56606C275.95 1.79846 274.859 1.45212 273.343 1.26566C271.783 1.07352 269.774 1.05082 265.611 1.00672C261.07 0.963423 255.384 1.13708 253.017 1.30863C209.542 5.13946 173.196 13.4492 140.502 27.1371C88.3436 48.9373 51.8989 83.3652 28.8093 132.698C15.9229 160.229 7.40173 190.819 3.07097 225.388C1.4563 238.381 0.816229 247.145 1.04491 253.41C1.13722 255.808 1.24002 257.256 1.4893 258.586C1.73762 259.91 2.13547 261.139 2.84858 263.096C5.30301 269.796 7.68381 273.443 12.9394 278.409C18.1502 283.334 21.9961 285.615 29.0985 287.966C31.439 288.733 32.5555 289.08 34.0558 289.267C35.5983 289.458 37.5496 289.481 41.5514 289.524ZM41.539 290.335H41.5064C33.5999 290.249 33.4094 291.867 28.754 290.343L54.8357 289.815L77.3747 286.705L125.087 277.915C99.1021 284.633 61.478 290.554 41.539 290.335ZM185.974 199.674L185.976 199.672C193.161 193.757 206.576 181.037 212.653 174.33L211.897 173.836C224.544 159.921 237.422 142.169 247.069 125.421L185.974 199.674ZM185.974 199.674C165.923 216.083 143.698 229.779 118.147 241.458L153.696 222.285L159.895 218.425L166.093 214.566L169.908 211.91L185.974 199.674ZM118.147 241.458C113.588 243.535 108.22 245.841 103.871 247.629C101.697 248.523 99.7712 249.288 98.3236 249.833C97.6011 250.104 96.9883 250.324 96.5195 250.478C96.2863 250.555 96.0768 250.618 95.9012 250.663C95.765 250.699 95.5321 250.757 95.3098 250.757C95.0387 250.757 94.8238 250.663 94.7605 250.634H94.7574C94.6558 250.589 94.556 250.534 94.4667 250.482C94.2856 250.375 94.0687 250.229 93.828 250.057C93.3426 249.71 92.6974 249.214 91.9294 248.601C90.3902 247.372 88.3188 245.642 85.9673 243.626C81.2629 239.595 75.4155 234.408 70.4214 229.776L118.147 241.458ZM24.7717 181.204L25.0248 181.504L30.2394 187.696L30.2399 187.698L31.0156 187.226L24.7717 181.204ZM24.8726 180.844L26.0726 176.57L26.074 176.565M26.074 176.565C28.0203 169.819 33.5685 152.47 36.5333 145.422L26.074 176.565ZM270.86 143.489C263.822 160.245 254.606 176.484 244.639 189.671C219.313 223.246 184.012 246.379 135.1 261.525C129.642 263.229 123.121 265.109 120.659 265.769L120.642 265.772L116.118 266.907L115.612 267.033L115.217 266.737L109.587 262.506C106.467 260.165 103.257 257.747 102.445 257.07L102.442 257.068L101.016 255.894L100.045 255.095L101.256 254.586L108.918 251.357L108.921 251.356C138.013 239.221 164.518 223.823 186.739 206.174C194.728 199.839 211.308 184.171 218.014 176.618C236.649 155.658 253.04 130.512 265.843 103.052L265.845 103.048L269.261 95.8085L269.875 94.5033L270.896 95.6091L272.139 96.9581L272.141 96.9598C272.856 97.7267 275.412 100.759 277.892 103.708L277.893 103.71L282.37 109.075L282.621 109.375L282.518 109.734L281.319 113.964V113.967C279.372 120.712 273.823 136.44 270.86 143.489ZM36.5333 145.422C45.6527 123.723 58.8422 106.899 71.6079 88.3758L58.8422 106.899L46.0765 125.421L36.5333 145.422ZM272.301 13.8977L272.315 13.9011C273.884 14.3057 276.288 15.107 277.678 15.6959L277.68 15.6957L277.699 15.7051C279.228 16.3933 281.22 17.5842 282.894 18.7286C283.733 19.3036 284.512 19.8784 285.124 20.3864C285.429 20.64 285.704 20.884 285.925 21.1084C286.137 21.3225 286.342 21.5582 286.472 21.7919L286.478 21.8029C286.672 22.172 286.747 22.5699 286.716 23.1495C286.688 23.7086 286.562 24.4926 286.308 25.6667C285.803 28.0242 284.759 32.1095 282.847 39.4522C281.552 44.409 280.211 49.2256 279.129 52.871C278.59 54.6927 278.113 56.2274 277.737 57.3426C277.55 57.8991 277.384 58.3596 277.249 58.7022C277.18 58.8728 277.115 59.024 277.054 59.1479C277.01 59.2395 276.923 59.4135 276.789 59.5512L276.776 59.5646L276.762 59.5776C276.444 59.8789 276.032 59.8623 275.879 59.8421C275.717 59.8205 275.593 59.7697 275.54 59.7457C275.416 59.6921 275.305 59.622 275.227 59.5695C275.055 59.4552 274.844 59.2913 274.609 59.0983C274.129 58.7062 273.471 58.1282 272.685 57.4133C271.111 55.9806 268.99 53.9659 266.702 51.7146C257.488 42.6594 245.228 31.5971 235.6 23.5871C233.821 22.1236 232.213 20.7678 231.048 19.7596C230.464 19.2558 229.987 18.8348 229.656 18.5292C229.49 18.3776 229.352 18.2469 229.251 18.1456C229.204 18.0966 229.152 18.0423 229.108 17.9898C229.087 17.9648 229.055 17.9242 229.022 17.875C229.007 17.8505 228.982 17.8098 228.959 17.7579C228.942 17.7169 228.898 17.6099 228.898 17.4685C228.898 17.0316 229.27 16.8014 229.333 16.7623L229.335 16.7612C229.455 16.6868 229.579 16.638 229.665 16.608C229.846 16.5437 230.073 16.4863 230.314 16.4338C230.804 16.3263 231.496 16.2073 232.339 16.0805C234.035 15.8259 236.415 15.5284 239.19 15.2197C244.744 14.6021 251.911 13.9355 258.388 13.4765L258.39 13.4763C264.081 13.0828 269.446 13.2 272.301 13.8977ZM258.968 104.731C255.388 112 251.028 120.391 247.925 125.776L171.466 30.1174L171.132 29.3577L171.136 29.3567C175.002 28.1319 179.694 26.7336 183.55 25.6357C185.478 25.0867 187.2 24.6113 188.509 24.2698C189.163 24.0992 189.718 23.9604 190.147 23.862C190.513 23.7783 190.885 23.6995 191.137 23.683C191.332 23.6679 191.48 23.7063 191.517 23.7159L191.52 23.7167C191.602 23.7378 191.671 23.7642 191.711 23.7809C191.793 23.8158 191.875 23.8579 191.942 23.8946C192.079 23.9711 192.253 24.0768 192.447 24.2009C192.838 24.4519 193.372 24.8136 194.002 25.2556C195.264 26.1409 196.946 27.3688 198.732 28.7262C213.715 39.9587 229.297 53.2416 243.26 66.6987C248.162 71.4181 253.651 76.9436 257.915 81.3892C260.047 83.6112 261.878 85.5684 263.177 87.0224C263.828 87.7481 264.352 88.3568 264.716 88.8141C264.898 89.0411 265.05 89.2436 265.161 89.4103C265.216 89.493 265.269 89.5822 265.313 89.6697C265.342 89.7297 265.422 89.8935 265.422 90.0913C265.422 90.3232 265.346 90.6134 265.264 90.8777C265.172 91.1712 265.042 91.5328 264.88 91.9495C264.554 92.7845 264.087 93.879 263.511 95.1632C262.357 97.7348 260.757 101.096 258.968 104.731ZM293.392 42.3575C293.159 47.8985 292.453 55.6929 291.709 62.0706C291.336 65.2595 290.952 68.1046 290.611 70.1436C290.441 71.1599 290.279 71.9924 290.132 72.5712C290.06 72.8543 289.982 73.1105 289.896 73.3048C289.858 73.3927 289.793 73.5279 289.686 73.6518C289.632 73.7127 289.528 73.823 289.352 73.9084C289.152 74.0075 288.858 74.0693 288.542 73.9814L288.501 73.9704L288.463 73.9563C288.332 73.9081 288.229 73.8437 288.181 73.8121C288.122 73.7724 288.065 73.7293 288.013 73.6886C287.91 73.607 287.794 73.5057 287.674 73.3946C287.43 73.1708 287.124 72.8715 286.787 72.5271C286.108 71.8364 285.265 70.9362 284.443 70.0314C283.621 69.1266 282.816 68.2094 282.211 67.4843C281.912 67.1232 281.653 66.8007 281.468 66.5476C281.376 66.4224 281.292 66.3013 281.227 66.1939C281.208 66.1628 281.189 66.1281 281.17 66.0913C281.157 66.0653 281.143 66.0383 281.132 66.0105C281.111 65.964 281.054 65.8306 281.054 65.6652C281.054 65.5726 281.073 65.4803 281.08 65.4429C281.092 65.386 281.107 65.318 281.124 65.2459C281.161 65.1006 281.21 64.9094 281.275 64.6808C281.401 64.2221 281.584 63.5939 281.811 62.8422C282.261 61.3385 282.887 59.329 283.579 57.1677C284.914 52.8593 287.033 45.4572 288.276 40.7143L290.538 32.0783L292.388 32.0417L292.987 33.9107L292.989 33.9138C293.497 35.4534 293.575 37.7675 293.392 42.3575ZM63.1562 261.436L63.1425 261.449L63.128 261.462C62.9739 261.595 62.7748 261.686 62.6731 261.73C62.536 261.79 62.3706 261.853 62.1879 261.918C61.82 262.049 61.3285 262.206 60.738 262.383C59.554 262.74 57.9271 263.191 55.9981 263.703C52.1379 264.724 47.0385 265.992 41.7913 267.215L41.7909 267.217C34.0231 269.024 29.6941 270.01 27.1926 270.49C25.949 270.729 25.1017 270.853 24.487 270.881C23.8368 270.91 23.368 270.836 22.9368 270.631C22.6575 270.5 22.388 270.289 22.1555 270.083C21.9076 269.864 21.6385 269.594 21.3599 269.292C20.8016 268.687 20.1713 267.92 19.5468 267.097C18.3043 265.459 17.0331 263.536 16.3776 262.158C15.2761 259.831 14.5895 257.955 14.2289 255.802C13.8701 253.661 13.8387 251.279 14.0008 247.952C14.2327 242.827 14.9267 235.123 15.6545 228.704C16.0184 225.494 16.3919 222.596 16.7215 220.496C16.8859 219.449 17.0415 218.586 17.182 217.98C17.2513 217.681 17.3224 217.419 17.3972 217.219C17.4325 217.127 17.4834 217.005 17.5574 216.895C17.5934 216.84 17.6606 216.749 17.7695 216.661C17.8742 216.576 18.1097 216.423 18.4614 216.423C18.6659 216.423 18.8164 216.48 18.8667 216.499C18.9338 216.525 18.985 216.553 19.0138 216.569C19.0721 216.601 19.1187 216.636 19.1454 216.657C19.203 216.699 19.2613 216.749 19.313 216.794C19.4206 216.888 19.5588 217.02 19.7191 217.175C20.0425 217.49 20.4877 217.941 21.0207 218.49C22.088 219.591 23.523 221.112 25.0725 222.795C33.549 231.893 45.2545 243.479 54.8357 252.184C57.2182 254.349 59.3499 256.351 60.866 257.84C61.6226 258.581 62.2339 259.203 62.6481 259.656C62.8524 259.88 63.0242 260.077 63.1429 260.236C63.1985 260.309 63.2664 260.407 63.3168 260.509C63.3401 260.557 63.382 260.65 63.3994 260.766C63.4127 260.857 63.4427 261.165 63.1562 261.436ZM74.2773 268.989L74.2861 268.997C75.3072 269.851 76.2488 270.665 76.9488 271.288C77.2982 271.599 77.5915 271.865 77.8059 272.07C77.9123 272.17 78.0052 272.261 78.0777 272.335C78.1135 272.373 78.1505 272.413 78.1837 272.452C78.2055 272.478 78.2686 272.551 78.3174 272.644L78.3533 272.712L78.3739 272.783C78.4673 273.107 78.3199 273.368 78.1971 273.508C78.0841 273.638 77.952 273.717 77.8755 273.757C77.7155 273.845 77.5303 273.908 77.3747 273.954C77.0451 274.053 76.5881 274.152 76.0434 274.252C74.9416 274.456 73.3473 274.688 71.3787 274.935C67.4357 275.428 61.9272 275.985 55.7092 276.488C49.846 276.989 45.6954 277.265 42.6208 277.32C39.5536 277.375 37.4951 277.213 35.8392 276.811L33.7247 276.334L30.3649 275.574L33.71 274.769L44.0487 272.284C54.4212 269.8 57.6792 268.932 64.5319 266.891L64.5498 266.884C65.5685 266.6 66.582 266.325 67.3905 266.12C67.7938 266.018 68.1547 265.931 68.4433 265.869C68.5871 265.838 68.7217 265.812 68.8396 265.793C68.9397 265.775 69.0879 265.754 69.2321 265.754C69.5279 265.754 69.7812 265.863 69.8729 265.902L69.8735 265.903C70.0146 265.963 70.1657 266.043 70.316 266.127C70.6196 266.299 70.9908 266.537 71.3997 266.816C72.2209 267.379 73.2457 268.147 74.2773 268.989ZM76.64 273.404L76.6381 273.402C76.6438 273.409 76.6451 273.411 76.64 273.404Z" fill="white"/>
<path d="M41.5514 289.524C61.3636 289.742 97.4943 284.616 123.419 277.915C170.676 265.652 207.576 246.272 235.642 218.969V218.967C262.519 192.875 281.939 158.677 294.189 115.851C301.423 90.5502 306.99 54.1638 306.347 37.122C306.256 34.7245 306.153 33.2756 305.903 31.946C305.655 30.6215 305.257 29.3918 304.543 27.435C302.136 20.7845 299.712 17.1353 294.452 12.1216C289.243 7.20032 285.444 4.96142 278.294 2.56606C275.95 1.79846 274.859 1.45212 273.343 1.26566C271.783 1.07352 269.774 1.05082 265.611 1.00672C261.07 0.963423 255.384 1.13708 253.017 1.30863C209.542 5.13946 173.196 13.4492 140.502 27.1371C88.3436 48.9373 51.8989 83.3652 28.8093 132.698M41.5514 289.524C37.5496 289.481 35.5983 289.458 34.0558 289.267C32.5555 289.08 31.439 288.733 29.0985 287.966C21.9961 285.615 18.1502 283.334 12.9394 278.409C7.68381 273.443 5.30301 269.796 2.84858 263.097C2.13547 261.139 1.73762 259.91 1.4893 258.586C1.24002 257.256 1.13722 255.808 1.04491 253.41C0.816229 247.145 1.4563 238.381 3.07097 225.388C7.40173 190.819 15.9229 160.229 28.8093 132.698M41.5514 289.524L41.539 290.335M28.8093 132.698L27.9232 132.4M41.539 290.335H41.5064C33.5999 290.249 33.4094 290.246 28.754 288.722L51.62 289.267L76.0434 286.883L123.695 278.69C97.7098 285.408 61.478 290.554 41.539 290.335ZM185.974 199.674L185.976 199.672C193.161 193.757 206.576 181.037 212.653 174.33L211.897 173.836C224.544 159.921 237.422 142.169 247.069 125.421L185.974 199.674ZM185.974 199.674C163.232 215.828 153.696 222.285 118.147 241.458M185.974 199.674L153.696 222.602L118.147 241.458M118.147 241.458C113.588 243.535 108.22 245.841 103.871 247.63C101.697 248.523 99.7712 249.288 98.3236 249.833C97.6011 250.104 96.9883 250.324 96.5195 250.478C96.2863 250.555 96.0768 250.618 95.9012 250.663C95.765 250.699 95.5321 250.757 95.3098 250.757C95.0387 250.757 94.8238 250.663 94.7605 250.634H94.7574C94.6558 250.589 94.556 250.534 94.4667 250.482C94.2856 250.375 94.0687 250.229 93.828 250.057C93.3426 249.71 92.6974 249.214 91.9294 248.601C90.3902 247.372 88.3188 245.642 85.9673 243.626C81.2629 239.595 75.4155 234.408 70.4214 229.776L118.147 241.458ZM24.7717 181.204L25.0248 181.504L30.2394 187.696L30.2399 187.698L31.0156 187.226L24.7717 181.204ZM24.7717 181.204L24.8726 180.844M24.8726 180.844L26.0726 176.57L26.074 176.565M24.8726 180.844L26.074 176.565M26.074 176.565C28.0203 169.819 33.5685 152.47 36.5333 145.422M26.074 176.565L36.5333 145.422M36.5333 145.422C45.6527 123.723 58.8422 106.899 71.6079 88.3758L58.8422 106.899L46.0765 125.421L36.5333 145.422ZM270.86 143.489C263.822 160.245 254.606 176.484 244.639 189.671C219.313 223.246 184.012 246.379 135.1 261.525C129.642 263.229 123.121 265.109 120.659 265.769L120.642 265.772L116.118 266.907L115.612 267.033L115.217 266.737L109.587 262.506C106.467 260.165 103.257 257.747 102.445 257.07L102.442 257.068L101.016 255.894L100.045 255.095L101.256 254.586L108.918 251.357L108.921 251.356C138.013 239.221 164.518 223.823 186.739 206.174C194.728 199.839 211.308 184.171 218.014 176.618C236.649 155.658 253.04 130.512 265.843 103.052L265.845 103.048L269.261 95.8085L269.875 94.5033L270.896 95.6091L272.139 96.9581L272.141 96.9598C272.856 97.7267 275.412 100.759 277.892 103.708L277.893 103.71L282.37 109.075L282.621 109.375L282.518 109.734L281.319 113.964V113.967C279.372 120.712 273.823 136.44 270.86 143.489ZM270.86 143.489L269.961 143.216M272.301 13.8977L272.315 13.9011C273.884 14.3057 276.288 15.107 277.678 15.6959L277.68 15.6957L277.699 15.7051C279.228 16.3933 281.22 17.5842 282.894 18.7286C283.733 19.3036 284.512 19.8784 285.124 20.3864C285.429 20.64 285.704 20.884 285.925 21.1084C286.137 21.3225 286.342 21.5582 286.472 21.7919L286.478 21.8029C286.672 22.172 286.747 22.5699 286.716 23.1495C286.688 23.7086 286.562 24.4926 286.308 25.6667C285.803 28.0242 284.759 32.1095 282.847 39.4522C281.552 44.409 280.211 49.2256 279.129 52.871C278.59 54.6927 278.113 56.2274 277.737 57.3426C277.55 57.8991 277.384 58.3596 277.249 58.7022C277.18 58.8728 277.115 59.024 277.054 59.1479C277.01 59.2395 276.923 59.4135 276.789 59.5512L276.776 59.5646L276.762 59.5776C276.444 59.8789 276.032 59.8623 275.879 59.8421C275.717 59.8205 275.593 59.7697 275.54 59.7458C275.416 59.6921 275.305 59.622 275.227 59.5695C275.055 59.4552 274.844 59.2913 274.609 59.0983C274.129 58.7062 273.471 58.1282 272.685 57.4133C271.111 55.9806 268.99 53.9659 266.702 51.7146C257.488 42.6594 245.228 31.5971 235.6 23.5872C233.821 22.1236 232.213 20.7678 231.048 19.7596C230.464 19.2558 229.987 18.8349 229.656 18.5292C229.49 18.3776 229.352 18.2469 229.251 18.1456C229.204 18.0966 229.152 18.0423 229.108 17.9898C229.087 17.9648 229.055 17.9242 229.022 17.875C229.007 17.8505 228.982 17.8098 228.959 17.7579C228.942 17.7169 228.898 17.6099 228.898 17.4685C228.898 17.0316 229.27 16.8014 229.333 16.7623L229.335 16.7612C229.455 16.6868 229.579 16.638 229.665 16.608C229.846 16.5437 230.073 16.4863 230.314 16.4338C230.804 16.3263 231.496 16.2073 232.339 16.0805C234.035 15.8259 236.415 15.5284 239.19 15.2197C244.744 14.6021 251.911 13.9355 258.388 13.4765L258.39 13.4763C264.081 13.0828 269.446 13.2 272.301 13.8977ZM258.968 104.731C255.388 112 251.028 120.391 247.925 125.776L171.466 30.1174L171.132 29.3577L171.136 29.3567C175.002 28.1319 179.694 26.7336 183.55 25.6357C185.478 25.0867 187.2 24.6113 188.509 24.2698C189.163 24.0992 189.718 23.9604 190.147 23.862C190.513 23.7783 190.885 23.6995 191.137 23.683C191.332 23.6679 191.48 23.7063 191.517 23.7159L191.52 23.7167C191.602 23.7378 191.671 23.7642 191.711 23.7809C191.793 23.8158 191.875 23.8579 191.942 23.8946C192.079 23.9711 192.253 24.0768 192.447 24.2009C192.838 24.4519 193.372 24.8136 194.002 25.2556C195.264 26.1409 196.946 27.3689 198.732 28.7262C213.715 39.9587 229.297 53.2416 243.26 66.6987C248.162 71.4181 253.651 76.9436 257.915 81.3892C260.047 83.6112 261.878 85.5684 263.177 87.0224C263.828 87.7482 264.352 88.3569 264.716 88.8141C264.898 89.0411 265.05 89.2436 265.161 89.4103C265.216 89.493 265.269 89.5822 265.313 89.6697C265.342 89.7297 265.422 89.8935 265.422 90.0913C265.422 90.3232 265.346 90.6134 265.264 90.8777C265.172 91.1712 265.042 91.5328 264.88 91.9495C264.554 92.7845 264.087 93.879 263.511 95.1632C262.357 97.7348 260.757 101.096 258.968 104.731ZM293.392 42.3575C293.159 47.8985 292.453 55.6929 291.709 62.0706C291.336 65.2595 290.952 68.1046 290.611 70.1436C290.441 71.1599 290.279 71.9924 290.132 72.5712C290.06 72.8544 289.982 73.1105 289.896 73.3048C289.858 73.3927 289.793 73.5279 289.686 73.6518C289.632 73.7127 289.528 73.823 289.352 73.9085C289.152 74.0075 288.858 74.0693 288.542 73.9814L288.501 73.9704L288.463 73.9563C288.332 73.9081 288.229 73.8438 288.181 73.8121C288.122 73.7724 288.065 73.7293 288.013 73.6886C287.91 73.607 287.794 73.5057 287.674 73.3946C287.43 73.1709 287.124 72.8715 286.787 72.5271C286.108 71.8364 285.265 70.9362 284.443 70.0314C283.621 69.1266 282.816 68.2094 282.211 67.4843C281.912 67.1232 281.653 66.8007 281.468 66.5476C281.376 66.4224 281.292 66.3013 281.227 66.1939C281.208 66.1628 281.189 66.1281 281.17 66.0913C281.157 66.0654 281.143 66.0383 281.132 66.0105C281.111 65.964 281.054 65.8306 281.054 65.6652C281.054 65.5726 281.073 65.4803 281.08 65.4429C281.092 65.386 281.107 65.318 281.124 65.2459C281.161 65.1006 281.21 64.9094 281.275 64.6808C281.401 64.2221 281.584 63.5939 281.811 62.8422C282.261 61.3385 282.887 59.329 283.579 57.1677C284.914 52.8593 287.033 45.4572 288.276 40.7143L290.538 32.0783L292.388 32.0417L292.987 33.9107L292.989 33.9138C293.497 35.4534 293.575 37.7675 293.392 42.3575ZM63.1562 261.436L63.1425 261.449L63.128 261.462C62.9739 261.595 62.7748 261.686 62.6731 261.73C62.536 261.79 62.3706 261.853 62.1879 261.918C61.82 262.049 61.3285 262.206 60.738 262.383C59.554 262.74 57.9271 263.191 55.9981 263.703C52.1379 264.724 47.0385 265.992 41.7913 267.215L41.7909 267.217C34.0231 269.025 29.6941 270.01 27.1926 270.49C25.949 270.729 25.1017 270.854 24.487 270.881C23.8368 270.91 23.368 270.836 22.9368 270.631C22.6575 270.5 22.388 270.289 22.1555 270.083C21.9076 269.864 21.6385 269.594 21.3599 269.292C20.8016 268.687 20.1713 267.92 19.5468 267.097C18.3043 265.459 17.0331 263.536 16.3776 262.158C15.2761 259.831 14.5895 257.955 14.2289 255.802C13.8701 253.661 13.8387 251.279 14.0008 247.952C14.2327 242.827 14.9267 235.123 15.6545 228.704C16.0184 225.494 16.3919 222.596 16.7215 220.496C16.8859 219.449 17.0415 218.586 17.182 217.98C17.2513 217.681 17.3224 217.419 17.3972 217.219C17.4325 217.127 17.4834 217.005 17.5574 216.895C17.5934 216.84 17.6606 216.749 17.7695 216.661C17.8742 216.576 18.1097 216.423 18.4614 216.423C18.6659 216.423 18.8164 216.48 18.8667 216.499C18.9338 216.525 18.985 216.553 19.0138 216.569C19.0721 216.602 19.1187 216.636 19.1454 216.657C19.203 216.699 19.2613 216.749 19.313 216.794C19.4206 216.888 19.5588 217.02 19.7191 217.175C20.0425 217.49 20.4877 217.941 21.0207 218.49C22.088 219.591 23.523 221.112 25.0725 222.795C33.549 231.893 45.2545 243.479 54.8357 252.184C57.2182 254.349 59.3499 256.351 60.866 257.84C61.6226 258.581 62.2339 259.203 62.6481 259.656C62.8524 259.88 63.0242 260.077 63.1429 260.236C63.1985 260.309 63.2664 260.407 63.3168 260.509C63.3401 260.557 63.382 260.65 63.3994 260.766C63.4127 260.857 63.4427 261.165 63.1562 261.436ZM74.2773 268.989L74.2861 268.997C75.3072 269.851 76.2488 270.665 76.9488 271.288C77.2982 271.599 77.5915 271.865 77.8059 272.07C77.9123 272.17 78.0052 272.261 78.0777 272.336C78.1135 272.373 78.1505 272.413 78.1837 272.452C78.2055 272.478 78.2686 272.551 78.3174 272.644L78.3533 272.712L78.3739 272.783C78.4673 273.107 78.3199 273.368 78.1971 273.508C78.0841 273.638 77.952 273.717 77.8755 273.758C77.7155 273.845 77.5303 273.908 77.3747 273.954C77.0451 274.053 76.5881 274.152 76.0434 274.252C74.9416 274.456 73.3473 274.688 71.3787 274.935C67.4357 275.428 61.9272 275.985 55.7092 276.488C49.846 276.989 45.6954 277.265 42.6208 277.32C39.5536 277.375 37.4951 277.213 35.8392 276.811L33.7247 276.334L30.3649 275.574L33.71 274.769L44.0487 272.284C54.4212 269.8 57.6792 268.932 64.5319 266.891L64.5498 266.884C65.5685 266.6 66.582 266.325 67.3905 266.121C67.7938 266.018 68.1547 265.931 68.4433 265.869C68.5871 265.838 68.7217 265.812 68.8396 265.793C68.9397 265.775 69.0879 265.754 69.2321 265.754C69.5279 265.754 69.7812 265.863 69.8729 265.902L69.8735 265.903C70.0146 265.963 70.1657 266.043 70.316 266.127C70.6196 266.299 70.9908 266.537 71.3997 266.816C72.2209 267.379 73.2457 268.147 74.2773 268.989ZM76.64 273.404L76.6381 273.402C76.6438 273.409 76.6451 273.411 76.64 273.404Z" stroke="white"/>
<path d="M146.45 46.7353C141.926 48.8289 141.003 54.3246 144.511 57.9012L145.48 58.8171L140.912 61.6523L136.388 64.4437L134.034 62.3501C131.219 59.9076 128.726 59.0789 126.049 59.7767C120.234 61.2597 118.527 68.0203 123.003 71.9895L124.065 72.949L119.541 76.3948C117.048 78.2703 114.834 79.8405 114.649 79.8405C114.464 79.8405 113.356 78.9682 112.156 77.9214C108.741 74.8682 104.818 74.6937 101.818 77.3544C98.6329 80.1895 98.6791 84.3767 101.864 87.7352L103.572 89.48L99.0945 93.6666L94.6636 97.8986L92.8174 96.2836C89.2634 93.2742 84.8326 93.2304 81.8325 96.2398C79.017 99.0757 79.2016 102.782 82.4325 106.011C83.5402 107.144 84.4633 108.235 84.4633 108.41C84.4633 108.759 77.54 116.915 77.2169 116.915C77.1246 116.915 76.2477 116.304 75.2784 115.606C70.9398 112.292 64.6627 114.081 63.2781 119.008C62.4935 121.713 63.2781 123.981 65.9551 126.686L68.1705 128.91L65.2166 133.185L62.2627 137.459L60.878 136.367C60.1395 135.758 58.7087 135.017 57.7856 134.754C54.1855 133.75 50.0316 135.975 48.9238 139.464C48.0007 142.388 48.6469 144.176 51.6931 147.186L54.4163 149.846L52.1547 153.772C49.6623 158.046 49.4777 158.962 50.5854 160.444C51.6008 161.84 53.2163 162.32 54.8778 161.797C55.9394 161.448 56.7241 160.576 58.0164 158.307C58.9395 156.65 59.8626 155.298 60.0472 155.298C60.2319 155.298 60.6011 155.603 60.9703 155.995C63.4166 158.787 68.909 158.439 71.6783 155.342C74.3553 152.288 73.9399 148.799 70.3398 145.266C68.9552 143.914 67.8474 142.649 67.8474 142.474C67.8474 142.344 69.1398 140.337 70.7552 138.112L73.6168 134.013L75.0938 135.234C77.1708 137.022 79.8478 137.676 82.1094 137.066C85.6172 136.063 87.6942 133.533 87.6942 130.261C87.6942 128.038 87.048 126.73 84.6941 124.374L82.5709 122.236L86.3557 117.787L90.0942 113.338L91.7558 114.865C93.9713 116.827 95.079 117.351 97.156 117.351C102.464 117.351 106.11 112.466 104.079 107.93C103.664 107.014 102.556 105.487 101.633 104.571L99.9714 102.957L104.448 98.7271L108.926 94.4952L110.633 96.0663C111.603 96.9387 113.218 97.9845 114.188 98.3785C118.988 100.297 124.157 96.8511 124.157 91.836C124.157 89.8724 123.604 88.8256 121.527 86.732L119.911 85.1618L124.618 81.6288L129.325 78.0522L131.587 80.0586C134.08 82.2831 135.465 82.8937 137.818 82.8937C141.28 82.8937 143.958 80.9309 145.018 77.6161C145.665 75.4788 144.972 72.949 143.08 70.9863L141.787 69.5905L145.066 67.4969C151.157 63.6586 150.604 63.7023 153.65 66.4937C157.434 69.8959 161.127 70.332 164.357 67.7586C167.682 65.098 168.004 60.7363 165.096 57.7267C164.588 57.1597 164.22 56.6363 164.357 56.5927C164.451 56.5055 165.927 55.6767 167.634 54.8044C170.958 53.0597 172.019 51.5331 171.235 49.5704C170.773 48.3491 169.066 47.1278 167.865 47.1278C167.358 47.1278 165.05 48.0874 162.742 49.3087L158.497 51.4459L156.189 49.265C152.588 45.7321 150.004 45.0778 146.45 46.7353Z" fill="#2955BB"/>
<path d="M416.5 222H371.614V76.5455H418.489C432.598 76.5455 444.672 79.4574 454.71 85.2812C464.748 91.0578 472.442 99.3674 477.793 110.21C483.143 121.006 485.818 133.932 485.818 148.989C485.818 164.14 483.119 177.185 477.722 188.122C472.324 199.012 464.464 207.393 454.142 213.264C443.82 219.088 431.273 222 416.5 222ZM389.227 206.375H415.364C427.39 206.375 437.357 204.055 445.264 199.415C453.171 194.775 459.066 188.17 462.949 179.599C466.831 171.029 468.773 160.826 468.773 148.989C468.773 137.246 466.855 127.137 463.02 118.662C459.185 110.139 453.455 103.605 445.832 99.0597C438.209 94.4669 428.716 92.1705 417.352 92.1705H389.227V206.375ZM515.364 222V76.5455H564.511C575.875 76.5455 585.203 78.4867 592.494 82.3693C599.786 86.2045 605.184 91.4839 608.688 98.2074C612.191 104.931 613.943 112.578 613.943 121.148C613.943 129.718 612.191 137.317 608.688 143.946C605.184 150.575 599.81 155.783 592.565 159.571C585.321 163.312 576.064 165.182 564.795 165.182H525.023V149.273H564.227C571.992 149.273 578.242 148.136 582.977 145.864C587.759 143.591 591.216 140.371 593.347 136.205C595.525 131.991 596.614 126.972 596.614 121.148C596.614 115.324 595.525 110.234 593.347 105.878C591.169 101.522 587.688 98.16 582.906 95.7926C578.124 93.3778 571.803 92.1705 563.943 92.1705H532.977V222H515.364ZM583.83 156.659L619.625 222H599.17L563.943 156.659H583.83ZM649.259 222H630.793L684.202 76.5455H702.384L755.793 222H737.327L693.862 99.5568H692.725L649.259 222ZM656.077 165.182H730.509V180.807H656.077V165.182ZM778.45 222V76.5455H865.665V92.1705H796.063V141.318H859.131V156.943H796.063V222H778.45ZM887.878 92.1705V76.5455H996.969V92.1705H951.23V222H933.616V92.1705H887.878ZM1016.2 92.1705V76.5455H1125.29V92.1705H1079.55V222H1061.94V92.1705H1016.2ZM1152.47 222V76.5455H1201.62C1212.98 76.5455 1222.31 78.4867 1229.6 82.3693C1236.9 86.2045 1242.29 91.4839 1245.8 98.2074C1249.3 104.931 1251.05 112.578 1251.05 121.148C1251.05 129.718 1249.3 137.317 1245.8 143.946C1242.29 150.575 1236.92 155.783 1229.67 159.571C1222.43 163.312 1213.17 165.182 1201.9 165.182H1162.13V149.273H1201.34C1209.1 149.273 1215.35 148.136 1220.09 145.864C1224.87 143.591 1228.33 140.371 1230.46 136.205C1232.63 131.991 1233.72 126.972 1233.72 121.148C1233.72 115.324 1232.63 110.234 1230.46 105.878C1228.28 101.522 1224.8 98.16 1220.02 95.7926C1215.23 93.3778 1208.91 92.1705 1201.05 92.1705H1170.09V222H1152.47ZM1220.94 156.659L1256.73 222H1236.28L1201.05 156.659H1220.94ZM1286.37 222H1267.9L1321.31 76.5455H1339.49L1392.9 222H1374.44L1330.97 99.5568H1329.83L1286.37 222ZM1293.19 165.182H1367.62V180.807H1293.19V165.182ZM1424.08 76.5455L1461.58 137.057H1462.72L1500.22 76.5455H1520.96L1475.22 149.273L1520.96 222H1500.22L1462.72 162.625H1461.58L1424.08 222H1403.34L1450.22 149.273L1403.34 76.5455H1424.08Z" fill="white"/>
</svg>
