<svg width="500" height="269" viewBox="0 0 500 269" fill="none" xmlns="http://www.w3.org/2000/svg">
<path d="M62.2005 223.469C72.5884 223.603 91.5324 220.442 105.125 216.309C129.903 208.746 149.25 196.794 163.966 179.955V179.954C178.058 163.862 188.24 142.771 194.663 116.359C198.456 100.755 201.375 78.3143 201.038 67.8041C200.99 66.3255 200.936 65.4319 200.805 64.6119C200.675 63.795 200.466 63.0366 200.092 61.8298C198.83 57.7282 197.559 55.4776 194.801 52.3855C192.07 49.3504 190.078 47.9696 186.329 46.4923C185.1 46.0189 184.528 45.8053 183.733 45.6903C182.915 45.5718 181.862 45.5578 179.679 45.5306C177.298 45.5039 174.317 45.611 173.076 45.7168C150.281 48.0794 131.224 53.2043 114.082 61.6461C86.7345 75.091 67.6259 96.3238 55.5196 126.749C48.763 143.728 44.2952 162.594 42.0245 183.914C41.1779 191.927 40.8423 197.332 40.9622 201.196C41.0106 202.675 41.0645 203.568 41.1952 204.388C41.3254 205.205 41.534 205.963 41.9079 207.17C43.1948 211.302 44.4431 213.551 47.1987 216.614C49.9308 219.651 51.9473 221.058 55.6712 222.508C56.8984 222.981 57.4838 223.195 58.2704 223.31C59.0792 223.428 60.1023 223.442 62.2005 223.469ZM62.194 223.969H62.1769C58.0314 223.916 57.9315 224.914 55.4906 223.974L69.1657 223.648L80.9833 221.73L106 216.309C92.3754 220.452 72.6484 224.104 62.194 223.969ZM137.924 168.055L137.925 168.054C141.692 164.406 148.726 156.561 151.912 152.425L151.516 152.12C158.147 143.538 164.899 132.59 169.957 122.261L137.924 168.055ZM137.924 168.055C127.411 178.175 115.758 186.622 102.361 193.825L121 182L124.25 179.62L127.5 177.239L129.5 175.602L137.924 168.055ZM102.361 193.825C99.9706 195.106 97.1561 196.528 94.8759 197.631C93.7361 198.182 92.7262 198.654 91.9672 198.99C91.5884 199.157 91.2671 199.293 91.0213 199.388C90.899 199.435 90.7892 199.474 90.6971 199.502C90.6257 199.524 90.5036 199.56 90.387 199.56C90.2449 199.56 90.1322 199.502 90.099 199.484H90.0974C90.0441 199.456 89.9918 199.422 89.945 199.39C89.85 199.324 89.7363 199.234 89.6101 199.128C89.3556 198.914 89.0173 198.608 88.6146 198.23C87.8076 197.472 86.7215 196.405 85.4886 195.162C83.022 192.676 79.9561 189.477 77.3376 186.62L102.361 193.825ZM53.4026 156.664L53.5353 156.849L56.2694 160.668L56.2697 160.669L56.6764 160.378L53.4026 156.664ZM53.4555 156.442L54.0847 153.806L54.0854 153.803M54.0854 153.803C55.1059 149.643 58.0149 138.943 59.5694 134.596L54.0854 153.803ZM182.431 133.404C178.741 143.738 173.909 153.753 168.683 161.886C155.404 182.593 136.895 196.86 111.25 206.201C108.388 207.252 104.969 208.411 103.678 208.818L103.669 208.82L101.297 209.52L101.032 209.598L100.825 209.415L97.8727 206.806C96.237 205.362 94.554 203.871 94.1281 203.453L94.1267 203.452L93.3788 202.728L92.8699 202.235L93.5046 201.921L97.5218 199.93L97.5236 199.929C112.777 192.445 126.674 182.949 138.325 172.064C142.514 168.157 151.207 158.494 154.723 153.836C164.494 140.909 173.088 125.401 179.801 108.465L179.802 108.463L181.593 103.998L181.915 103.193L182.45 103.875L183.102 104.707L183.103 104.708C183.478 105.181 184.818 107.051 186.118 108.87L186.119 108.871L188.466 112.18L188.598 112.365L188.544 112.586L187.915 115.195V115.197C186.894 119.357 183.985 129.057 182.431 133.404ZM59.5694 134.596C64.3509 121.214 71.2664 110.838 77.9597 99.414L71.2664 110.838L64.5731 122.261L59.5694 134.596ZM183.187 53.4809L183.194 53.483C184.017 53.7325 185.277 54.2267 186.006 54.5899L186.007 54.5898L186.017 54.5956C186.819 55.02 187.863 55.7545 188.741 56.4603C189.181 56.8149 189.589 57.1694 189.91 57.4827C190.07 57.6391 190.214 57.7896 190.33 57.928C190.441 58.06 190.549 58.2054 190.617 58.3495L190.62 58.3563C190.722 58.5839 190.761 58.8293 190.745 59.1868C190.73 59.5316 190.664 60.0151 190.531 60.7392C190.266 62.1932 189.719 64.7127 188.716 69.2412C188.037 72.2982 187.334 75.2688 186.767 77.517C186.484 78.6405 186.234 79.587 186.037 80.2748C185.939 80.618 185.852 80.902 185.781 81.1133C185.745 81.2185 185.711 81.3118 185.679 81.3882C185.656 81.4447 185.61 81.552 185.54 81.6369L185.533 81.6452L185.526 81.6532C185.359 81.839 185.143 81.8288 185.063 81.8163C184.978 81.803 184.913 81.7717 184.885 81.7569C184.82 81.7238 184.762 81.6806 184.721 81.6482C184.631 81.5777 184.52 81.4766 184.397 81.3576C184.145 81.1158 183.8 80.7593 183.388 80.3184C182.563 79.4348 181.451 78.1923 180.251 76.8038C175.42 71.2192 168.992 64.3967 163.944 59.4567C163.011 58.5541 162.168 57.7179 161.557 57.0961C161.251 56.7854 161.001 56.5258 160.827 56.3373C160.74 56.2438 160.668 56.1632 160.615 56.1007C160.59 56.0705 160.563 56.037 160.54 56.0046C160.529 55.9892 160.512 55.9642 160.495 55.9338C160.487 55.9187 160.474 55.8936 160.462 55.8616C160.453 55.8363 160.43 55.7703 160.43 55.6831C160.43 55.4137 160.625 55.2717 160.658 55.2476L160.659 55.2469C160.722 55.201 160.787 55.1709 160.832 55.1524C160.927 55.1128 161.046 55.0774 161.172 55.045C161.429 54.9787 161.792 54.9053 162.234 54.8271C163.123 54.6701 164.371 54.4866 165.826 54.2962C168.738 53.9153 172.496 53.5042 175.892 53.2211L175.893 53.221C178.877 52.9783 181.69 53.0506 183.187 53.4809ZM176.196 109.501C174.319 113.984 172.033 119.159 170.406 122.48L130.317 63.4841L130.142 63.0156L130.144 63.015C132.171 62.2596 134.631 61.3972 136.653 60.7201C137.664 60.3815 138.567 60.0883 139.253 59.8777C139.596 59.7725 139.887 59.6869 140.112 59.6262C140.304 59.5746 140.499 59.526 140.631 59.5158C140.733 59.5065 140.811 59.5302 140.83 59.5361L140.832 59.5366C140.875 59.5496 140.911 59.5659 140.932 59.5762C140.975 59.5977 141.018 59.6237 141.053 59.6463C141.125 59.6935 141.216 59.7587 141.318 59.8352C141.523 59.99 141.803 60.2131 142.133 60.4857C142.795 61.0317 143.677 61.789 144.613 62.6261C152.469 69.5536 160.639 77.7456 167.96 86.045C170.53 88.9556 173.408 92.3634 175.644 95.1051C176.762 96.4755 177.722 97.6826 178.403 98.5793C178.744 99.0269 179.019 99.4023 179.21 99.6843C179.305 99.8243 179.385 99.9492 179.443 100.052C179.472 100.103 179.5 100.158 179.523 100.212C179.538 100.249 179.58 100.35 179.58 100.472C179.58 100.615 179.54 100.794 179.497 100.957C179.449 101.138 179.381 101.361 179.296 101.618C179.125 102.133 178.88 102.808 178.578 103.6C177.973 105.186 177.134 107.259 176.196 109.501ZM194.245 71.033C194.123 74.4503 193.753 79.2574 193.363 83.1907C193.167 85.1574 192.966 86.9121 192.787 88.1696C192.698 88.7964 192.613 89.3098 192.536 89.6668C192.498 89.8414 192.457 89.9994 192.412 90.1192C192.392 90.1734 192.358 90.2568 192.302 90.3332C192.274 90.3708 192.219 90.4388 192.127 90.4915C192.022 90.5526 191.868 90.5907 191.702 90.5365L191.681 90.5297L191.661 90.521C191.592 90.4913 191.538 90.4516 191.513 90.4321C191.482 90.4076 191.452 90.381 191.425 90.3559C191.371 90.3056 191.31 90.2431 191.247 90.1746C191.119 90.0366 190.959 89.852 190.782 89.6396C190.426 89.2136 189.984 88.6584 189.553 88.1004C189.122 87.5424 188.7 86.9767 188.383 86.5295C188.226 86.3068 188.09 86.1079 187.993 85.9518C187.945 85.8746 187.901 85.7999 187.867 85.7337C187.857 85.7145 187.847 85.6931 187.837 85.6704C187.83 85.6544 187.823 85.6377 187.817 85.6206C187.806 85.5919 187.776 85.5096 187.776 85.4076C187.776 85.3505 187.786 85.2936 187.79 85.2705C187.796 85.2354 187.804 85.1935 187.813 85.149C187.832 85.0594 187.858 84.9415 187.892 84.8005C187.958 84.5176 188.054 84.1302 188.173 83.6666C188.409 82.7392 188.737 81.4999 189.1 80.1669C189.8 77.5098 190.911 72.9447 191.563 70.0196L192.749 64.6935L193.719 64.6709L194.033 65.8236L194.034 65.8255C194.3 66.775 194.341 68.2022 194.245 71.033ZM73.5283 206.146L73.5211 206.154L73.5135 206.162C73.4327 206.244 73.3283 206.3 73.275 206.327C73.2031 206.364 73.1164 206.403 73.0206 206.443C72.8277 206.524 72.57 206.621 72.2604 206.73C71.6396 206.95 70.7866 207.228 69.7752 207.544C67.7512 208.174 65.0775 208.956 62.3263 209.71L62.3261 209.711C58.2533 210.826 55.9835 211.434 54.6719 211.73C54.0199 211.877 53.5756 211.954 53.2533 211.971C52.9124 211.989 52.6666 211.943 52.4405 211.817C52.2941 211.736 52.1528 211.606 52.0309 211.479C51.9009 211.344 51.7598 211.177 51.6137 210.991C51.321 210.618 50.9905 210.145 50.6631 209.637C50.0116 208.627 49.3451 207.441 49.0014 206.591C48.4239 205.156 48.0639 203.999 47.8748 202.671C47.6867 201.351 47.6702 199.882 47.7552 197.83C47.8768 194.669 48.2407 189.918 48.6223 185.959C48.8131 183.979 49.0089 182.192 49.1817 180.897C49.2679 180.251 49.3495 179.719 49.4232 179.345C49.4595 179.161 49.4968 178.999 49.536 178.876C49.5545 178.819 49.5812 178.744 49.62 178.676C49.6389 178.642 49.6741 178.586 49.7312 178.532C49.7861 178.479 49.9096 178.385 50.094 178.385C50.2012 178.385 50.2801 178.42 50.3065 178.432C50.3417 178.448 50.3685 178.465 50.3836 178.475C50.4142 178.495 50.4386 178.516 50.4526 178.529C50.4828 178.555 50.5134 178.586 50.5405 178.614C50.5969 178.672 50.6694 178.753 50.7534 178.849C50.923 179.043 51.1564 179.321 51.4359 179.66C51.9955 180.339 52.7479 181.277 53.5603 182.315C58.0047 187.926 64.1421 195.071 69.1657 200.44C70.4149 201.775 71.5326 203.01 72.3275 203.928C72.7242 204.385 73.0447 204.769 73.2619 205.048C73.369 205.186 73.4591 205.308 73.5213 205.406C73.5505 205.451 73.5861 205.511 73.6125 205.574C73.6247 205.604 73.6467 205.661 73.6558 205.733C73.6628 205.789 73.6785 205.979 73.5283 206.146ZM79.3593 210.804L79.3639 210.809C79.8993 211.336 80.393 211.838 80.76 212.222C80.9432 212.414 81.097 212.578 81.2094 212.704C81.2652 212.766 81.3139 212.822 81.3519 212.868C81.3707 212.891 81.3901 212.916 81.4075 212.94C81.4189 212.956 81.452 213.001 81.4776 213.058L81.4964 213.1L81.5072 213.144C81.5562 213.344 81.4789 213.505 81.4145 213.591C81.3553 213.671 81.286 213.72 81.2459 213.745C81.162 213.799 81.0649 213.838 80.9833 213.866C80.8105 213.927 80.5709 213.988 80.2853 214.05C79.7076 214.176 78.8717 214.319 77.8395 214.471C75.7721 214.775 72.8839 215.119 69.6237 215.429C66.5495 215.738 64.3733 215.908 62.7612 215.942C61.153 215.976 60.0737 215.876 59.2055 215.628L58.0968 215.334L56.3352 214.865L58.0891 214.369L63.5099 212.836C68.9484 211.304 70.6566 210.769 74.2496 209.51L74.259 209.506C74.7931 209.331 75.3245 209.161 75.7484 209.035C75.9599 208.972 76.1491 208.918 76.3004 208.88C76.3758 208.861 76.4464 208.845 76.5082 208.833C76.5607 208.822 76.6384 208.809 76.714 208.809C76.8691 208.809 77.0019 208.876 77.05 208.9L77.0503 208.901C77.1243 208.938 77.2035 208.987 77.2823 209.039C77.4415 209.145 77.6361 209.292 77.8505 209.464C78.2811 209.811 78.8184 210.285 79.3593 210.804ZM80.5981 213.527L80.5971 213.526C80.6001 213.53 80.6008 213.531 80.5981 213.527Z" fill="white"/>
<path d="M62.2005 223.469C72.5884 223.603 91.5324 220.442 105.125 216.309C129.903 208.746 149.25 196.794 163.966 179.955V179.954C178.058 163.862 188.24 142.771 194.663 116.359C198.456 100.755 201.375 78.3143 201.038 67.8041C200.99 66.3255 200.936 65.4319 200.805 64.6119C200.675 63.795 200.466 63.0366 200.092 61.8298C198.83 57.7282 197.559 55.4776 194.801 52.3855C192.07 49.3504 190.078 47.9696 186.329 46.4923C185.1 46.0189 184.528 45.8053 183.733 45.6903C182.915 45.5718 181.862 45.5578 179.679 45.5306C177.298 45.5039 174.317 45.611 173.076 45.7168C150.281 48.0794 131.224 53.2043 114.082 61.6461C86.7345 75.091 67.6259 96.3238 55.5196 126.749M62.2005 223.469C60.1023 223.442 59.0792 223.428 58.2704 223.31C57.4838 223.195 56.8984 222.981 55.6712 222.508C51.9473 221.058 49.9308 219.651 47.1987 216.614C44.4431 213.551 43.1948 211.302 41.9079 207.17C41.534 205.963 41.3254 205.205 41.1952 204.388C41.0645 203.568 41.0106 202.675 40.9622 201.196C40.8423 197.332 41.1779 191.927 42.0245 183.914C44.2952 162.594 48.763 143.728 55.5196 126.749M62.2005 223.469L62.194 223.969M55.5196 126.749L55.055 126.565M62.194 223.969H62.1769C58.0314 223.916 57.9315 223.914 55.4906 222.974L67.4797 223.31L80.2853 221.84L105.27 216.787C91.6454 220.93 72.6484 224.104 62.194 223.969ZM137.924 168.055L137.925 168.054C141.692 164.406 148.726 156.561 151.912 152.425L151.516 152.12C158.147 143.538 164.899 132.59 169.957 122.261L137.924 168.055ZM137.924 168.055C126 178.018 121 182 102.361 193.825M137.924 168.055L121 182.196L102.361 193.825M102.361 193.825C99.9706 195.106 97.1561 196.528 94.8759 197.631C93.7361 198.182 92.7262 198.654 91.9672 198.99C91.5884 199.157 91.2671 199.293 91.0213 199.388C90.899 199.435 90.7892 199.474 90.6971 199.502C90.6257 199.524 90.5036 199.56 90.387 199.56C90.2449 199.56 90.1322 199.502 90.099 199.484H90.0974C90.0441 199.456 89.9918 199.422 89.945 199.39C89.85 199.324 89.7363 199.234 89.6101 199.128C89.3556 198.914 89.0173 198.608 88.6146 198.23C87.8076 197.472 86.7215 196.405 85.4886 195.162C83.022 192.676 79.9561 189.477 77.3376 186.62L102.361 193.825ZM53.4026 156.664L53.5353 156.849L56.2694 160.668L56.2697 160.669L56.6764 160.378L53.4026 156.664ZM53.4026 156.664L53.4555 156.442M53.4555 156.442L54.0847 153.806L54.0854 153.803M53.4555 156.442L54.0854 153.803M54.0854 153.803C55.1059 149.643 58.0149 138.943 59.5694 134.596M54.0854 153.803L59.5694 134.596M59.5694 134.596C64.3509 121.214 71.2664 110.838 77.9597 99.414L71.2664 110.838L64.5731 122.261L59.5694 134.596ZM182.431 133.404C178.741 143.738 173.909 153.753 168.683 161.886C155.404 182.593 136.895 196.86 111.25 206.201C108.388 207.252 104.969 208.411 103.678 208.818L103.669 208.82L101.297 209.52L101.032 209.598L100.825 209.415L97.8727 206.806C96.237 205.362 94.554 203.871 94.1281 203.453L94.1267 203.452L93.3788 202.728L92.8699 202.235L93.5046 201.921L97.5218 199.93L97.5236 199.929C112.777 192.445 126.674 182.949 138.325 172.064C142.514 168.157 151.207 158.494 154.723 153.836C164.494 140.909 173.088 125.401 179.801 108.465L179.802 108.463L181.593 103.998L181.915 103.193L182.45 103.875L183.102 104.707L183.103 104.708C183.478 105.181 184.818 107.051 186.118 108.87L186.119 108.871L188.466 112.18L188.598 112.365L188.544 112.586L187.915 115.195V115.197C186.894 119.357 183.985 129.057 182.431 133.404ZM182.431 133.404L181.96 133.236M183.187 53.4809L183.194 53.483C184.017 53.7325 185.277 54.2267 186.006 54.5899L186.007 54.5898L186.017 54.5956C186.819 55.02 187.863 55.7545 188.741 56.4603C189.181 56.8149 189.589 57.1694 189.91 57.4827C190.07 57.6391 190.214 57.7896 190.33 57.928C190.441 58.06 190.549 58.2054 190.617 58.3495L190.62 58.3563C190.722 58.5839 190.761 58.8293 190.745 59.1868C190.73 59.5316 190.664 60.0151 190.531 60.7392C190.266 62.1932 189.719 64.7127 188.716 69.2412C188.037 72.2982 187.334 75.2688 186.767 77.517C186.484 78.6405 186.234 79.587 186.037 80.2748C185.939 80.618 185.852 80.902 185.781 81.1133C185.745 81.2185 185.711 81.3118 185.679 81.3882C185.656 81.4447 185.61 81.552 185.54 81.6369L185.533 81.6452L185.526 81.6532C185.359 81.839 185.143 81.8288 185.063 81.8163C184.978 81.803 184.913 81.7717 184.885 81.7569C184.82 81.7238 184.762 81.6806 184.721 81.6482C184.631 81.5777 184.52 81.4766 184.397 81.3576C184.145 81.1158 183.8 80.7593 183.388 80.3184C182.563 79.4348 181.451 78.1923 180.251 76.8038C175.42 71.2192 168.992 64.3967 163.944 59.4567C163.011 58.5541 162.168 57.7179 161.557 57.0961C161.251 56.7854 161.001 56.5258 160.827 56.3373C160.74 56.2438 160.668 56.1632 160.615 56.1007C160.59 56.0705 160.563 56.037 160.54 56.0046C160.529 55.9892 160.512 55.9642 160.495 55.9338C160.487 55.9187 160.474 55.8936 160.462 55.8616C160.453 55.8363 160.43 55.7703 160.43 55.6831C160.43 55.4137 160.625 55.2717 160.658 55.2476L160.659 55.2469C160.722 55.201 160.787 55.1709 160.832 55.1524C160.927 55.1128 161.046 55.0774 161.172 55.045C161.429 54.9787 161.792 54.9053 162.234 54.8271C163.123 54.6701 164.371 54.4866 165.826 54.2962C168.738 53.9153 172.496 53.5042 175.892 53.2211L175.893 53.221C178.877 52.9783 181.69 53.0506 183.187 53.4809ZM176.196 109.501C174.319 113.984 172.033 119.159 170.406 122.48L130.317 63.4841L130.142 63.0156L130.144 63.015C132.171 62.2596 134.631 61.3972 136.653 60.7201C137.664 60.3815 138.567 60.0883 139.253 59.8777C139.596 59.7725 139.887 59.6869 140.112 59.6262C140.304 59.5746 140.499 59.526 140.631 59.5158C140.733 59.5065 140.811 59.5302 140.83 59.5361L140.832 59.5366C140.875 59.5496 140.911 59.5659 140.932 59.5762C140.975 59.5977 141.018 59.6237 141.053 59.6463C141.125 59.6935 141.216 59.7587 141.318 59.8352C141.523 59.99 141.803 60.2131 142.133 60.4857C142.795 61.0317 143.677 61.789 144.613 62.6261C152.469 69.5536 160.639 77.7456 167.96 86.045C170.53 88.9556 173.408 92.3634 175.644 95.1051C176.762 96.4755 177.722 97.6826 178.403 98.5793C178.744 99.0269 179.019 99.4023 179.21 99.6843C179.305 99.8243 179.385 99.9492 179.443 100.052C179.472 100.103 179.5 100.158 179.523 100.212C179.538 100.249 179.58 100.35 179.58 100.472C179.58 100.615 179.54 100.794 179.497 100.957C179.449 101.138 179.381 101.361 179.296 101.618C179.125 102.133 178.88 102.808 178.578 103.6C177.973 105.186 177.134 107.259 176.196 109.501ZM194.245 71.033C194.123 74.4503 193.753 79.2574 193.363 83.1907C193.167 85.1574 192.966 86.9121 192.787 88.1696C192.698 88.7964 192.613 89.3098 192.536 89.6668C192.498 89.8414 192.457 89.9994 192.412 90.1192C192.392 90.1734 192.358 90.2568 192.302 90.3332C192.274 90.3708 192.219 90.4388 192.127 90.4915C192.022 90.5526 191.868 90.5907 191.702 90.5365L191.681 90.5297L191.661 90.521C191.592 90.4913 191.538 90.4516 191.513 90.4321C191.482 90.4076 191.452 90.381 191.425 90.3559C191.371 90.3056 191.31 90.2431 191.247 90.1746C191.119 90.0366 190.959 89.852 190.782 89.6396C190.426 89.2136 189.984 88.6584 189.553 88.1004C189.122 87.5424 188.7 86.9767 188.383 86.5295C188.226 86.3068 188.09 86.1079 187.993 85.9518C187.945 85.8746 187.901 85.7999 187.867 85.7337C187.857 85.7145 187.847 85.6931 187.837 85.6704C187.83 85.6544 187.823 85.6377 187.817 85.6206C187.806 85.5919 187.776 85.5096 187.776 85.4076C187.776 85.3505 187.786 85.2936 187.79 85.2705C187.796 85.2354 187.804 85.1935 187.813 85.149C187.832 85.0594 187.858 84.9415 187.892 84.8005C187.958 84.5176 188.054 84.1302 188.173 83.6666C188.409 82.7392 188.737 81.4999 189.1 80.1669C189.8 77.5098 190.911 72.9447 191.563 70.0196L192.749 64.6935L193.719 64.6709L194.033 65.8236L194.034 65.8255C194.3 66.775 194.341 68.2022 194.245 71.033ZM73.5283 206.146L73.5211 206.154L73.5135 206.162C73.4327 206.244 73.3283 206.3 73.275 206.327C73.2031 206.364 73.1164 206.403 73.0206 206.443C72.8277 206.524 72.57 206.621 72.2604 206.73C71.6396 206.95 70.7866 207.228 69.7752 207.544C67.7512 208.174 65.0775 208.956 62.3263 209.71L62.3261 209.711C58.2533 210.826 55.9835 211.434 54.6719 211.73C54.0199 211.877 53.5756 211.954 53.2533 211.971C52.9124 211.989 52.6666 211.943 52.4405 211.817C52.2941 211.736 52.1528 211.606 52.0309 211.479C51.9009 211.344 51.7598 211.177 51.6137 210.991C51.321 210.618 50.9905 210.145 50.6631 209.637C50.0116 208.627 49.3451 207.441 49.0014 206.591C48.4239 205.156 48.0639 203.999 47.8748 202.671C47.6867 201.351 47.6702 199.882 47.7552 197.83C47.8768 194.669 48.2407 189.918 48.6223 185.959C48.8131 183.979 49.0089 182.192 49.1817 180.897C49.2679 180.251 49.3495 179.719 49.4232 179.345C49.4595 179.161 49.4968 178.999 49.536 178.876C49.5545 178.819 49.5812 178.744 49.62 178.676C49.6389 178.642 49.6741 178.586 49.7312 178.532C49.7861 178.479 49.9096 178.385 50.094 178.385C50.2012 178.385 50.2801 178.42 50.3065 178.432C50.3417 178.448 50.3685 178.465 50.3836 178.475C50.4142 178.495 50.4386 178.516 50.4526 178.529C50.4828 178.555 50.5134 178.586 50.5405 178.614C50.5969 178.672 50.6694 178.753 50.7534 178.849C50.923 179.043 51.1564 179.321 51.4359 179.66C51.9955 180.339 52.7479 181.277 53.5603 182.315C58.0047 187.926 64.1421 195.071 69.1657 200.44C70.4149 201.775 71.5326 203.01 72.3275 203.928C72.7242 204.385 73.0447 204.769 73.2619 205.048C73.369 205.186 73.4591 205.308 73.5213 205.406C73.5505 205.451 73.5861 205.511 73.6125 205.574C73.6247 205.604 73.6467 205.661 73.6558 205.733C73.6628 205.789 73.6785 205.979 73.5283 206.146ZM79.3593 210.804L79.3639 210.809C79.8993 211.336 80.393 211.838 80.76 212.222C80.9432 212.414 81.097 212.578 81.2094 212.704C81.2652 212.766 81.3139 212.822 81.3519 212.868C81.3707 212.891 81.3901 212.916 81.4075 212.94C81.4189 212.956 81.452 213.001 81.4776 213.058L81.4964 213.1L81.5072 213.144C81.5562 213.344 81.4789 213.505 81.4145 213.591C81.3553 213.671 81.286 213.72 81.2459 213.745C81.162 213.799 81.0649 213.838 80.9833 213.866C80.8105 213.927 80.5709 213.988 80.2853 214.05C79.7076 214.176 78.8717 214.319 77.8395 214.471C75.7721 214.775 72.8839 215.119 69.6237 215.429C66.5495 215.738 64.3733 215.908 62.7612 215.942C61.153 215.976 60.0737 215.876 59.2055 215.628L58.0968 215.334L56.3352 214.865L58.0891 214.369L63.5099 212.836C68.9484 211.304 70.6566 210.769 74.2496 209.51L74.259 209.506C74.7931 209.331 75.3245 209.161 75.7484 209.035C75.9599 208.972 76.1491 208.918 76.3004 208.88C76.3758 208.861 76.4464 208.845 76.5082 208.833C76.5607 208.822 76.6384 208.809 76.714 208.809C76.8691 208.809 77.0019 208.876 77.05 208.9L77.0503 208.901C77.1243 208.938 77.2035 208.987 77.2823 209.039C77.4415 209.145 77.6361 209.292 77.8505 209.464C78.2811 209.811 78.8184 210.285 79.3593 210.804ZM80.5981 213.527L80.5971 213.526C80.6001 213.53 80.6008 213.531 80.5981 213.527Z" stroke="white"/>
<path d="M117.201 73.7329C114.829 75.0241 114.345 78.4135 116.184 80.6193L116.692 81.1842L114.297 82.9327L111.925 84.6543L110.691 83.3631C109.215 81.8567 107.908 81.3456 106.504 81.776C103.455 82.6906 102.56 86.8601 104.907 89.308L105.464 89.8998L103.092 92.0249C101.785 93.1816 100.624 94.15 100.527 94.15C100.43 94.15 99.8492 93.612 99.22 92.9664C97.4292 91.0834 95.3722 90.9758 93.7992 92.6167C92.1294 94.3652 92.1536 96.9476 93.8234 99.0189L94.7188 100.095L92.3714 102.677L90.0482 105.287L89.0802 104.291C87.2168 102.435 84.8936 102.408 83.3206 104.264C81.8444 106.013 81.9412 108.299 83.6352 110.29C84.216 110.989 84.7 111.662 84.7 111.77C84.7 111.985 81.07 117.015 80.9006 117.015C80.8522 117.015 80.3924 116.638 79.8842 116.208C77.6094 114.164 74.3182 115.267 73.5922 118.306C73.1808 119.974 73.5922 121.373 74.9958 123.041L76.1574 124.413L74.6086 127.049L73.0598 129.685L72.3338 129.012C71.9466 128.636 71.1964 128.179 70.7124 128.017C68.8248 127.398 66.6468 128.77 66.066 130.922C65.582 132.725 65.9208 133.828 67.518 135.684L68.9458 137.325L67.76 139.746C66.4532 142.382 66.3564 142.947 66.9372 143.861C67.4696 144.722 68.3166 145.018 69.1878 144.695C69.7444 144.48 70.1558 143.942 70.8334 142.543C71.3174 141.521 71.8014 140.687 71.8982 140.687C71.995 140.687 72.1886 140.875 72.3822 141.117C73.6648 142.839 76.5446 142.624 77.9966 140.714C79.4002 138.831 79.1824 136.679 77.2948 134.5C76.5688 133.666 75.988 132.886 75.988 132.778C75.988 132.698 76.6656 131.46 77.5126 130.088L79.013 127.56L79.7874 128.313C80.8764 129.416 82.28 129.819 83.4658 129.443C85.305 128.824 86.394 127.264 86.394 125.246C86.394 123.875 86.0552 123.068 84.821 121.615L83.7078 120.297L85.6922 117.553L87.6524 114.809L88.5236 115.751C89.6852 116.961 90.266 117.284 91.355 117.284C94.138 117.284 96.0498 114.271 94.985 111.474C94.7672 110.909 94.1864 109.967 93.7024 109.402L92.8312 108.407L95.1786 105.798L97.526 103.188L98.4214 104.157C98.9296 104.695 99.7766 105.34 100.285 105.583C102.802 106.766 105.512 104.641 105.512 101.548C105.512 100.337 105.222 99.6914 104.133 98.4002L103.286 97.4318L105.754 95.2529L108.222 93.0471L109.408 94.2845C110.715 95.6564 111.441 96.033 112.675 96.033C114.49 96.033 115.894 94.8225 116.45 92.7781C116.789 91.46 116.426 89.8998 115.434 88.6893L114.756 87.8285L116.475 86.5373C119.669 84.1701 119.379 84.197 120.976 85.9186C122.96 88.0168 124.896 88.2858 126.59 86.6987C128.333 85.0578 128.502 82.3678 126.977 80.5117C126.711 80.162 126.518 79.8392 126.59 79.8123C126.639 79.7585 127.413 79.2474 128.308 78.7094C130.051 77.6334 130.607 76.6919 130.196 75.4814C129.954 74.7282 129.059 73.975 128.429 73.975C128.163 73.975 126.953 74.5668 125.743 75.32L123.517 76.6381L122.307 75.2931C120.419 73.1142 119.064 72.7107 117.201 73.7329Z" fill="#2955BB"/>
<path d="M220.991 165.5C218.416 165.5 216.075 164.833 213.969 163.5C211.863 162.167 210.181 160.167 208.923 157.5C207.666 154.833 207.037 151.523 207.037 147.568C207.037 143.462 207.688 140.083 208.991 137.432C210.295 134.78 211.999 132.818 214.105 131.545C216.226 130.273 218.507 129.636 220.946 129.636C222.779 129.636 224.348 129.955 225.651 130.591C226.954 131.212 228.029 132.015 228.878 133C229.726 133.985 230.37 135.008 230.81 136.068H231.037V118.455H242.151V165H231.151V159.341H230.81C230.34 160.417 229.673 161.424 228.81 162.364C227.946 163.303 226.863 164.061 225.56 164.636C224.272 165.212 222.749 165.5 220.991 165.5ZM224.855 156.841C226.204 156.841 227.355 156.462 228.31 155.705C229.264 154.932 229.999 153.848 230.514 152.455C231.029 151.061 231.287 149.424 231.287 147.545C231.287 145.636 231.029 143.992 230.514 142.614C230.014 141.235 229.279 140.174 228.31 139.432C227.355 138.689 226.204 138.318 224.855 138.318C223.476 138.318 222.31 138.697 221.355 139.455C220.401 140.212 219.673 141.28 219.173 142.659C218.688 144.038 218.446 145.667 218.446 147.545C218.446 149.424 218.696 151.061 219.196 152.455C219.696 153.848 220.416 154.932 221.355 155.705C222.31 156.462 223.476 156.841 224.855 156.841ZM249.179 165V130.091H259.974V136.455H260.338C260.974 134.152 262.012 132.439 263.452 131.318C264.891 130.182 266.565 129.614 268.474 129.614C268.99 129.614 269.52 129.652 270.065 129.727C270.611 129.788 271.118 129.886 271.588 130.023V139.682C271.058 139.5 270.361 139.356 269.497 139.25C268.649 139.144 267.891 139.091 267.224 139.091C265.906 139.091 264.717 139.386 263.656 139.977C262.611 140.553 261.785 141.364 261.179 142.409C260.588 143.439 260.293 144.652 260.293 146.045V165H249.179ZM284.645 165.591C282.418 165.591 280.44 165.22 278.713 164.477C277.001 163.72 275.645 162.583 274.645 161.068C273.66 159.538 273.168 157.621 273.168 155.318C273.168 153.379 273.509 151.742 274.19 150.409C274.872 149.076 275.812 147.992 277.009 147.159C278.205 146.326 279.584 145.697 281.145 145.273C282.705 144.833 284.372 144.538 286.145 144.386C288.13 144.205 289.728 144.015 290.94 143.818C292.152 143.606 293.031 143.311 293.577 142.932C294.137 142.538 294.418 141.985 294.418 141.273V141.159C294.418 139.992 294.016 139.091 293.213 138.455C292.41 137.818 291.327 137.5 289.963 137.5C288.493 137.5 287.312 137.818 286.418 138.455C285.524 139.091 284.955 139.97 284.713 141.091L274.463 140.727C274.766 138.606 275.546 136.712 276.804 135.045C278.077 133.364 279.819 132.045 282.031 131.091C284.259 130.121 286.933 129.636 290.054 129.636C292.281 129.636 294.334 129.902 296.213 130.432C298.092 130.947 299.728 131.705 301.122 132.705C302.516 133.689 303.592 134.902 304.349 136.341C305.122 137.78 305.509 139.424 305.509 141.273V165H295.054V160.136H294.781C294.16 161.318 293.365 162.318 292.395 163.136C291.44 163.955 290.312 164.568 289.009 164.977C287.721 165.386 286.266 165.591 284.645 165.591ZM288.077 158.318C289.274 158.318 290.349 158.076 291.304 157.591C292.274 157.106 293.046 156.439 293.622 155.591C294.198 154.727 294.486 153.727 294.486 152.591V149.273C294.168 149.439 293.781 149.591 293.327 149.727C292.887 149.864 292.402 149.992 291.872 150.114C291.342 150.235 290.796 150.341 290.236 150.432C289.675 150.523 289.137 150.606 288.622 150.682C287.577 150.848 286.683 151.106 285.94 151.455C285.213 151.803 284.652 152.258 284.259 152.818C283.88 153.364 283.69 154.015 283.69 154.773C283.69 155.924 284.099 156.803 284.918 157.409C285.751 158.015 286.804 158.318 288.077 158.318ZM332.145 130.091V138.273H309.69V130.091H332.145ZM314.372 165V128.318C314.372 125.621 314.88 123.386 315.895 121.614C316.91 119.826 318.319 118.492 320.122 117.614C321.925 116.72 324.009 116.273 326.372 116.273C327.918 116.273 329.372 116.394 330.736 116.636C332.115 116.864 333.137 117.068 333.804 117.25L332.031 125.386C331.622 125.25 331.122 125.136 330.531 125.045C329.955 124.955 329.41 124.909 328.895 124.909C327.592 124.909 326.698 125.197 326.213 125.773C325.728 126.348 325.486 127.136 325.486 128.136V165H314.372ZM357.196 130.091V138.273H335.173V130.091H357.196ZM339.787 121.727H350.901V154.023C350.901 154.705 351.007 155.258 351.219 155.682C351.446 156.091 351.772 156.386 352.196 156.568C352.62 156.735 353.128 156.818 353.719 156.818C354.143 156.818 354.59 156.78 355.06 156.705C355.545 156.614 355.908 156.538 356.151 156.477L357.832 164.5C357.302 164.652 356.552 164.841 355.582 165.068C354.628 165.295 353.484 165.439 352.151 165.5C349.545 165.621 347.31 165.318 345.446 164.591C343.598 163.848 342.181 162.697 341.196 161.136C340.226 159.576 339.757 157.614 339.787 155.25V121.727ZM382.571 130.091V138.273H360.548V130.091H382.571ZM365.162 121.727H376.276V154.023C376.276 154.705 376.382 155.258 376.594 155.682C376.821 156.091 377.147 156.386 377.571 156.568C377.995 156.735 378.503 156.818 379.094 156.818C379.518 156.818 379.965 156.78 380.435 156.705C380.92 156.614 381.283 156.538 381.526 156.477L383.207 164.5C382.677 164.652 381.927 164.841 380.957 165.068C380.003 165.295 378.859 165.439 377.526 165.5C374.92 165.621 372.685 165.318 370.821 164.591C368.973 163.848 367.556 162.697 366.571 161.136C365.601 159.576 365.132 157.614 365.162 155.25V121.727ZM388.241 165V130.091H399.037V136.455H399.401C400.037 134.152 401.075 132.439 402.514 131.318C403.954 130.182 405.628 129.614 407.537 129.614C408.052 129.614 408.582 129.652 409.128 129.727C409.673 129.788 410.181 129.886 410.651 130.023V139.682C410.12 139.5 409.423 139.356 408.56 139.25C407.711 139.144 406.954 139.091 406.287 139.091C404.969 139.091 403.779 139.386 402.719 139.977C401.673 140.553 400.848 141.364 400.241 142.409C399.651 143.439 399.355 144.652 399.355 146.045V165H388.241ZM423.707 165.591C421.48 165.591 419.503 165.22 417.776 164.477C416.063 163.72 414.707 162.583 413.707 161.068C412.723 159.538 412.23 157.621 412.23 155.318C412.23 153.379 412.571 151.742 413.253 150.409C413.935 149.076 414.874 147.992 416.071 147.159C417.268 146.326 418.647 145.697 420.207 145.273C421.768 144.833 423.435 144.538 425.207 144.386C427.192 144.205 428.791 144.015 430.003 143.818C431.215 143.606 432.094 143.311 432.639 142.932C433.2 142.538 433.48 141.985 433.48 141.273V141.159C433.48 139.992 433.079 139.091 432.276 138.455C431.473 137.818 430.389 137.5 429.026 137.5C427.556 137.5 426.374 137.818 425.48 138.455C424.586 139.091 424.018 139.97 423.776 141.091L413.526 140.727C413.829 138.606 414.609 136.712 415.866 135.045C417.139 133.364 418.882 132.045 421.094 131.091C423.321 130.121 425.995 129.636 429.116 129.636C431.344 129.636 433.397 129.902 435.276 130.432C437.154 130.947 438.791 131.705 440.185 132.705C441.579 133.689 442.654 134.902 443.412 136.341C444.185 137.78 444.571 139.424 444.571 141.273V165H434.116V160.136H433.844C433.223 161.318 432.427 162.318 431.457 163.136C430.503 163.955 429.374 164.568 428.071 164.977C426.783 165.386 425.329 165.591 423.707 165.591ZM427.139 158.318C428.336 158.318 429.412 158.076 430.366 157.591C431.336 157.106 432.109 156.439 432.685 155.591C433.26 154.727 433.548 153.727 433.548 152.591V149.273C433.23 149.439 432.844 149.591 432.389 149.727C431.95 149.864 431.465 149.992 430.935 150.114C430.404 150.235 429.859 150.341 429.298 150.432C428.738 150.523 428.2 150.606 427.685 150.682C426.639 150.848 425.745 151.106 425.003 151.455C424.276 151.803 423.715 152.258 423.321 152.818C422.942 153.364 422.753 154.015 422.753 154.773C422.753 155.924 423.162 156.803 423.98 157.409C424.813 158.015 425.866 158.318 427.139 158.318ZM460.821 130.091L466.571 141.591L472.526 130.091H483.73L473.98 147.545L484.094 165H472.98L466.571 153.409L460.321 165H449.048L459.185 147.545L449.548 130.091H460.821Z" fill="white"/>
</svg>
