<svg width="3305" height="1010" viewBox="0 0 3305 1010" fill="none" xmlns="http://www.w3.org/2000/svg">
<path d="M488.725 157L501.824 158.802L536.756 173.222L580.42 187.641L624.084 198.456L678.664 207.468L715.779 211.073H790.008L831.489 207.468L886.069 198.456L903.534 194.851H914.45L921 268.751V330.034L914.45 396.724L903.534 450.798L888.252 503.068L870.786 549.932L844.588 604.005L809.657 661.683L781.275 699.534L763.809 719.361L737.611 748.2L715.779 768.027L700.496 782.446L678.664 800.471L661.198 813.088L635 831.112L595.702 854.544L558.588 872.568L523.656 886.988L499.641 896L479.992 894.198L421.046 870.766L379.565 849.137L344.634 827.507L316.252 807.68L283.504 782.446L259.489 760.817L239.84 740.99L209.275 706.744L176.527 663.485L145.962 614.819L119.763 562.549L97.9313 508.476L82.6489 458.007L71.7328 403.934L65.1832 353.466L63 321.022V272.356L69.5496 203.863L71.7328 194.851L91.3817 196.654L139.412 205.666L191.809 211.073H263.855L307.519 207.468L368.649 196.654L403.58 187.641L447.244 173.222L488.725 157Z" fill="white"/>
<path d="M489.314 282.469H518.398L551.637 289.531L572.411 298.358L593.185 312.481L607.727 326.605L620.192 344.259L630.579 372.506L632.657 429L651.354 434.296L661.741 444.889L663.818 448.42V624.963L657.586 635.556L647.199 642.617L640.966 644.383H360.513L348.048 637.321L339.738 628.494L337.661 621.432V450.185L345.97 439.593L356.358 432.531L375.055 429L377.132 374.272L383.364 353.086L395.829 331.901L412.448 314.247L429.068 301.889L462.307 287.765L489.314 282.469Z" fill="#2955BB"/>
<path d="M489.314 312.481H518.398L539.172 317.778L564.101 330.136L580.721 346.025L593.185 367.21L597.34 390.16V429L595.263 430.765H412.449V374.272L420.758 354.852L435.3 337.197L451.92 324.839L472.694 316.012L489.314 312.481Z" fill="white"/>
<path d="M90.4459 642.617L98.7557 651.444L102.911 653.21V656.741L113.298 658.506L117.453 665.568L123.685 669.099L129.917 658.506L144.459 656.741L146.537 647.914H152.769V651.444L159.001 653.21L169.388 663.802V667.333H173.543L194.318 693.815L217.17 723.827L235.866 743.247L258.718 767.963L264.951 773.259V776.79H269.105L283.648 790.914L302.344 806.803L318.964 819.161L345.971 838.58H339.738L327.274 833.284H318.964L321.041 836.815L318.964 842.111L310.654 843.877L308.577 850.938L302.344 852.704H294.035L273.26 843.877L256.641 831.519V827.988H248.331L213.015 797.975L196.395 785.617L190.163 778.556L183.931 776.79L156.924 745.012L129.917 709.704L102.911 669.099L90.4459 647.914V642.617Z" fill="#FD288D"/>
<path d="M90.4459 263.049H92.5234L96.6783 351.321L102.911 400.753V430.765L104.988 436.062L107.065 466.074H102.911L100.833 471.37L88.3685 459.012L82.1362 446.654L71.749 406.049L65.5167 361.914L63.4393 340.728V314.247L67.5941 310.716L69.6716 305.42L82.1362 301.889L86.2911 282.469L88.3685 266.58L90.4459 263.049Z" fill="#222222"/>
<path d="M520.475 72.3827L535.017 74.1481L564.101 86.5061L618.115 105.926L630.579 111.222L643.044 112.988L678.36 120.049L711.599 125.346H773.922L813.394 121.815L859.097 112.988H875.717L877.794 109.457L911.033 104.16L921.42 100.63H931.808V104.16L861.175 121.815L813.394 130.642L782.232 134.173H719.909L674.206 128.877L632.657 120.049L586.953 105.926L545.404 88.2716L520.475 75.9136V72.3827Z" fill="#FD288D"/>
<path d="M499.701 513.741L514.243 517.272L522.553 527.864V540.222L516.32 547.284L514.243 586.123L510.088 593.185L495.546 594.951L487.236 586.123L485.159 545.519L478.927 536.691L481.004 524.333L491.391 515.506L499.701 513.741Z" fill="white"/>
<path d="M100.833 414.876H104.988L109.143 441.358H104.988L100.833 425.469V414.876Z" fill="#222222"/>
<path d="M501.223 47.8395L526.18 58.7319L563.616 76.8858L598.972 91.409L648.886 105.932L700.88 115.009L721.678 116.825H784.071L838.145 109.563L892.219 96.8552L971.25 75.0704L979.569 73.255L983.728 84.1474L1000.37 202.148L1004.53 252.979V316.518L1000.37 369.165L994.127 414.55L983.728 463.565L971.25 510.766L954.612 556.151L940.053 592.459L921.335 630.582L896.378 675.967L871.421 714.09L836.065 759.475L815.268 783.075L792.39 806.675L767.433 830.276L734.157 859.322L711.279 875.661L686.322 893.815L648.886 915.599L611.451 935.569L561.536 957.354L507.462 975.507L490.824 973.692V1010H488.745V971.877L467.947 966.43L415.953 946.461L370.198 924.676L339.002 906.522L309.885 888.368L282.848 868.399L262.05 852.06L214.216 810.306L195.498 790.337L166.381 757.66L145.583 730.429L122.706 697.752L101.908 665.074L79.031 623.32L56.1536 572.489L39.5155 528.92L24.9572 479.904L14.5583 436.334L4.15953 370.98L0 303.81V271.133L4.15953 207.594L22.8774 75.0704L27.0369 73.255L126.866 100.486L176.78 111.378L222.535 116.825H280.768L328.603 111.378L370.198 102.301L401.395 93.2244L442.99 76.8858L486.665 55.1011L490.824 49.6549V53.2857L501.223 47.8395ZM499.143 144.056L451.309 164.025L407.634 178.548L349.4 191.256L309.885 196.702L284.928 198.517H216.295L155.982 191.256L110.227 182.179H101.908L97.7489 209.41L93.5894 260.241V309.257L97.7489 361.903L106.068 418.181L118.547 470.827L137.264 527.104L158.062 576.12L183.019 623.32L203.817 657.813L235.013 699.567L255.811 724.983L274.529 744.952L297.406 766.737L311.965 781.26L343.161 806.675L372.278 826.645L401.395 844.799L442.99 866.584L490.824 886.553L509.542 888.368L555.297 870.214L594.812 850.245L623.929 832.091L650.966 813.937L675.923 793.968L692.561 781.26L713.359 763.106L732.077 743.137L752.875 721.352L775.752 692.305L798.629 661.444L827.746 612.428L844.384 581.566L867.262 528.92L885.98 472.642L898.458 419.996L906.777 369.165L910.937 318.334V256.61L904.697 182.179L885.98 183.994L838.145 193.071L811.108 196.702L786.151 198.517H715.439L669.684 193.071L611.451 182.179L563.616 167.656L517.861 149.502L507.462 144.056H499.143Z" fill="#2955BB"/>
<path d="M496.896 127.111L507.291 130.642L540.554 144.765L573.818 157.123L607.081 167.716L644.503 176.543L692.319 183.605L708.951 185.37H773.398L817.057 181.839L871.11 173.012L925.163 160.654L929.321 171.247L935.558 215.383V270.111L931.4 293.062L927.242 307.185L925.163 310.716L921.005 308.951L912.689 294.827L908.531 268.346H906.452L902.294 215.383V195.963L835.767 208.321L808.741 211.852L783.793 213.617H713.108L667.371 208.321L609.16 197.728L561.344 183.605L515.607 165.951L505.212 160.654L492.738 162.42L449.08 180.074L405.422 194.197L347.211 206.556L307.71 211.852L282.763 213.617H214.157L153.867 206.556L99.814 195.963L95.6561 243.63L93.5771 271.876V319.543L97.7351 370.741L101.893 400.753V430.765L103.972 436.062L106.051 466.074H101.893L99.814 471.37L87.3403 459.012L81.1034 446.654L70.7085 406.049L64.4716 361.914L62.3927 340.728V263.049L66.5506 211.852L72.7875 169.481L74.8665 162.42L95.6561 165.951L133.077 174.778L172.578 181.839L203.762 185.37H284.842L334.737 180.074L386.711 169.481L428.29 157.123L476.107 137.704L496.896 127.111Z" fill="#2955BB"/>
<path d="M1405.2 232.756C1404.06 221.297 1399.18 212.396 1390.57 206.051C1381.95 199.706 1370.25 196.534 1355.48 196.534C1345.44 196.534 1336.97 197.955 1330.06 200.795C1323.14 203.542 1317.84 207.377 1314.15 212.301C1310.55 217.225 1308.75 222.812 1308.75 229.062C1308.56 234.271 1309.65 238.816 1312.02 242.699C1314.48 246.581 1317.84 249.943 1322.1 252.784C1326.36 255.53 1331.29 257.945 1336.87 260.028C1342.46 262.017 1348.43 263.722 1354.77 265.142L1380.91 271.392C1393.6 274.233 1405.24 278.021 1415.85 282.756C1426.46 287.491 1435.64 293.314 1443.41 300.227C1451.17 307.14 1457.19 315.284 1461.45 324.659C1465.8 334.034 1468.03 344.782 1468.12 356.903C1468.03 374.706 1463.48 390.142 1454.49 403.21C1445.59 416.184 1432.71 426.269 1415.85 433.466C1399.09 440.568 1378.87 444.119 1355.2 444.119C1331.71 444.119 1311.26 440.521 1293.83 433.324C1276.5 426.127 1262.96 415.473 1253.21 401.364C1243.55 387.159 1238.48 369.593 1238.01 348.665H1297.53C1298.19 358.419 1300.98 366.562 1305.91 373.097C1310.93 379.536 1317.6 384.413 1325.94 387.727C1334.36 390.947 1343.88 392.557 1354.49 392.557C1364.9 392.557 1373.95 391.042 1381.62 388.011C1389.38 384.981 1395.4 380.767 1399.66 375.369C1403.92 369.972 1406.05 363.769 1406.05 356.761C1406.05 350.227 1404.11 344.735 1400.23 340.284C1396.44 335.833 1390.85 332.045 1383.46 328.92C1376.17 325.795 1367.22 322.955 1356.62 320.398L1324.94 312.443C1300.41 306.477 1281.05 297.15 1266.84 284.46C1252.64 271.771 1245.59 254.678 1245.68 233.182C1245.59 215.568 1250.27 200.18 1259.74 187.017C1269.31 173.854 1282.42 163.58 1299.09 156.193C1315.76 148.807 1334.7 145.114 1355.91 145.114C1377.5 145.114 1396.34 148.807 1412.44 156.193C1428.63 163.58 1441.23 173.854 1450.23 187.017C1459.22 200.18 1463.86 215.426 1464.15 232.756H1405.2ZM1509.49 440V149.091H1705.52V199.801H1571V269.119H1695.43V319.83H1571V389.29H1706.08V440H1509.49ZM2011.09 250.938H1948.88C1947.74 242.888 1945.42 235.739 1941.92 229.489C1938.41 223.144 1933.91 217.746 1928.42 213.295C1922.93 208.845 1916.58 205.436 1909.39 203.068C1902.29 200.701 1894.57 199.517 1886.23 199.517C1871.18 199.517 1858.06 203.258 1846.89 210.739C1835.71 218.125 1827.05 228.92 1820.89 243.125C1814.74 257.235 1811.66 274.375 1811.66 294.545C1811.66 315.284 1814.74 332.708 1820.89 346.818C1827.14 360.928 1835.86 371.581 1847.03 378.778C1858.2 385.975 1871.13 389.574 1885.81 389.574C1894.05 389.574 1901.67 388.485 1908.68 386.307C1915.78 384.129 1922.08 380.956 1927.57 376.79C1933.06 372.528 1937.61 367.367 1941.21 361.307C1944.9 355.246 1947.46 348.333 1948.88 340.568L2011.09 340.852C2009.48 354.205 2005.46 367.083 1999.02 379.489C1992.67 391.799 1984.1 402.831 1973.31 412.585C1962.61 422.244 1949.82 429.915 1934.96 435.597C1920.18 441.184 1903.47 443.977 1884.81 443.977C1858.87 443.977 1835.67 438.106 1815.21 426.364C1794.85 414.621 1778.75 397.623 1766.92 375.369C1755.17 353.116 1749.3 326.174 1749.3 294.545C1749.3 262.822 1755.27 235.833 1767.2 213.58C1779.13 191.326 1795.33 174.375 1815.78 162.727C1836.23 150.985 1859.25 145.114 1884.81 145.114C1901.67 145.114 1917.29 147.481 1931.69 152.216C1946.18 156.951 1959.01 163.864 1970.18 172.955C1981.36 181.951 1990.45 192.983 1997.46 206.051C2004.56 219.119 2009.1 234.081 2011.09 250.938ZM2234.88 149.091H2296.39V338.011C2296.39 359.223 2291.32 377.784 2281.19 393.693C2271.15 409.602 2257.09 422.008 2239 430.909C2220.92 439.716 2199.85 444.119 2175.79 444.119C2151.65 444.119 2130.53 439.716 2112.44 430.909C2094.35 422.008 2080.29 409.602 2070.25 393.693C2060.22 377.784 2055.2 359.223 2055.2 338.011V149.091H2116.7V332.756C2116.7 343.835 2119.12 353.684 2123.95 362.301C2128.87 370.919 2135.78 377.689 2144.69 382.614C2153.59 387.538 2163.96 390 2175.79 390C2187.73 390 2198.09 387.538 2206.9 382.614C2215.8 377.689 2222.67 370.919 2227.5 362.301C2232.42 353.684 2234.88 343.835 2234.88 332.756V149.091ZM2346.99 440V149.091H2461.77C2483.74 149.091 2502.49 153.021 2518.02 160.881C2533.64 168.646 2545.53 179.678 2553.67 193.977C2561.91 208.182 2566.03 224.896 2566.03 244.119C2566.03 263.437 2561.86 280.057 2553.53 293.977C2545.19 307.803 2533.12 318.409 2517.31 325.795C2501.59 333.182 2482.55 336.875 2460.2 336.875H2383.36V287.443H2450.26C2462 287.443 2471.76 285.833 2479.52 282.614C2487.29 279.394 2493.06 274.564 2496.85 268.125C2500.73 261.686 2502.68 253.684 2502.68 244.119C2502.68 234.46 2500.73 226.316 2496.85 219.688C2493.06 213.059 2487.24 208.04 2479.38 204.631C2471.62 201.127 2461.81 199.375 2449.98 199.375H2408.5V440H2346.99ZM2504.1 307.614L2576.4 440H2508.5L2437.76 307.614H2504.1ZM2609.49 440V149.091H2805.52V199.801H2671V269.119H2795.43V319.83H2671V389.29H2806.08V440H2609.49Z" fill="white"/>
<mask id="path-12-outside-1_1_20" maskUnits="userSpaceOnUse" x="1161" y="644" width="1902" height="168" fill="black">
<rect fill="white" x="1161" y="644" width="1902" height="168"/>
<path d="M1253.59 695.969C1253.07 690.24 1250.76 685.786 1246.64 682.609C1242.58 679.38 1236.77 677.766 1229.22 677.766C1224.22 677.766 1220.05 678.417 1216.72 679.719C1213.39 681.021 1210.89 682.818 1209.22 685.109C1207.55 687.349 1206.69 689.927 1206.64 692.844C1206.54 695.24 1207.01 697.349 1208.05 699.172C1209.14 700.995 1210.7 702.609 1212.73 704.016C1214.82 705.37 1217.32 706.568 1220.23 707.609C1223.15 708.651 1226.43 709.562 1230.08 710.344L1243.83 713.469C1251.74 715.188 1258.72 717.479 1264.77 720.344C1270.86 723.208 1275.96 726.62 1280.08 730.578C1284.24 734.536 1287.4 739.094 1289.53 744.25C1291.67 749.406 1292.76 755.187 1292.81 761.594C1292.76 771.698 1290.21 780.37 1285.16 787.609C1280.1 794.849 1272.84 800.396 1263.36 804.25C1253.93 808.104 1242.55 810.031 1229.22 810.031C1215.83 810.031 1204.17 808.026 1194.22 804.016C1184.27 800.005 1176.54 793.911 1171.02 785.734C1165.49 777.557 1162.66 767.219 1162.5 754.719H1199.53C1199.84 759.875 1201.22 764.172 1203.67 767.609C1206.12 771.047 1209.48 773.651 1213.75 775.422C1218.07 777.193 1223.07 778.078 1228.75 778.078C1233.96 778.078 1238.39 777.375 1242.03 775.969C1245.73 774.563 1248.57 772.609 1250.55 770.109C1252.53 767.609 1253.54 764.745 1253.59 761.516C1253.54 758.495 1252.6 755.917 1250.78 753.781C1248.96 751.594 1246.15 749.719 1242.34 748.156C1238.59 746.542 1233.8 745.057 1227.97 743.703L1211.25 739.797C1197.4 736.62 1186.48 731.49 1178.52 724.406C1170.55 717.271 1166.59 707.635 1166.64 695.5C1166.59 685.604 1169.24 676.932 1174.61 669.484C1179.97 662.036 1187.4 656.229 1196.88 652.063C1206.35 647.896 1217.16 645.812 1229.3 645.812C1241.69 645.812 1252.45 647.922 1261.56 652.141C1270.73 656.307 1277.84 662.167 1282.89 669.719C1287.94 677.271 1290.52 686.021 1290.63 695.969H1253.59ZM1398.83 695.969C1398.31 690.24 1395.99 685.786 1391.88 682.609C1387.81 679.38 1382.01 677.766 1374.45 677.766C1369.45 677.766 1365.29 678.417 1361.95 679.719C1358.62 681.021 1356.12 682.818 1354.45 685.109C1352.79 687.349 1351.93 689.927 1351.88 692.844C1351.77 695.24 1352.24 697.349 1353.28 699.172C1354.38 700.995 1355.94 702.609 1357.97 704.016C1360.05 705.37 1362.55 706.568 1365.47 707.609C1368.39 708.651 1371.67 709.562 1375.31 710.344L1389.06 713.469C1396.98 715.188 1403.96 717.479 1410 720.344C1416.09 723.208 1421.2 726.62 1425.31 730.578C1429.48 734.536 1432.63 739.094 1434.77 744.25C1436.9 749.406 1437.99 755.187 1438.05 761.594C1437.99 771.698 1435.44 780.37 1430.39 787.609C1425.34 794.849 1418.07 800.396 1408.59 804.25C1399.17 808.104 1387.79 810.031 1374.45 810.031C1361.07 810.031 1349.4 808.026 1339.45 804.016C1329.51 800.005 1321.77 793.911 1316.25 785.734C1310.73 777.557 1307.89 767.219 1307.73 754.719H1344.77C1345.08 759.875 1346.46 764.172 1348.91 767.609C1351.35 771.047 1354.71 773.651 1358.98 775.422C1363.31 777.193 1368.31 778.078 1373.98 778.078C1379.19 778.078 1383.62 777.375 1387.27 775.969C1390.96 774.563 1393.8 772.609 1395.78 770.109C1397.76 767.609 1398.78 764.745 1398.83 761.516C1398.78 758.495 1397.84 755.917 1396.02 753.781C1394.19 751.594 1391.38 749.719 1387.58 748.156C1383.83 746.542 1379.04 745.057 1373.2 743.703L1356.48 739.797C1342.63 736.62 1331.72 731.49 1323.75 724.406C1315.78 717.271 1311.82 707.635 1311.88 695.5C1311.82 685.604 1314.48 676.932 1319.84 669.484C1325.21 662.036 1332.63 656.229 1342.11 652.063C1351.59 647.896 1362.4 645.812 1374.53 645.812C1386.93 645.812 1397.68 647.922 1406.8 652.141C1415.96 656.307 1423.07 662.167 1428.13 669.719C1433.18 677.271 1435.76 686.021 1435.86 695.969H1398.83ZM1457.58 808V648H1496.25V776.594H1562.81V808H1457.58ZM1630.1 808V648H1741.66V679.406H1668.77V712.219H1735.96V743.703H1668.77V776.594H1741.66V808H1630.1ZM1902.05 648V808H1869.24L1805.57 715.656H1804.55V808H1765.88V648H1799.16L1862.13 740.187H1863.46V648H1902.05ZM2071.6 705.969H2032.54C2032.02 701.958 2030.95 698.339 2029.34 695.109C2027.72 691.88 2025.59 689.12 2022.93 686.828C2020.27 684.536 2017.12 682.792 2013.48 681.594C2009.88 680.344 2005.9 679.719 2001.52 679.719C1993.76 679.719 1987.07 681.62 1981.45 685.422C1975.87 689.224 1971.58 694.719 1968.55 701.906C1965.59 709.094 1964.1 717.792 1964.1 728C1964.1 738.625 1965.61 747.531 1968.63 754.719C1971.71 761.854 1976 767.245 1981.52 770.891C1987.1 774.484 1993.68 776.281 2001.29 776.281C2005.56 776.281 2009.44 775.734 2012.93 774.641C2016.47 773.547 2019.57 771.958 2022.23 769.875C2024.93 767.74 2027.15 765.161 2028.87 762.141C2030.64 759.068 2031.86 755.604 2032.54 751.75L2071.6 751.984C2070.92 759.068 2068.87 766.047 2065.43 772.922C2062.04 779.797 2057.38 786.073 2051.45 791.75C2045.51 797.375 2038.27 801.854 2029.73 805.187C2021.24 808.521 2011.5 810.187 2000.51 810.187C1986.03 810.187 1973.06 807.01 1961.6 800.656C1950.2 794.25 1941.18 784.927 1934.57 772.687C1927.96 760.448 1924.65 745.552 1924.65 728C1924.65 710.396 1928.01 695.474 1934.73 683.234C1941.45 670.995 1950.53 661.698 1961.99 655.344C1973.45 648.99 1986.29 645.812 2000.51 645.812C2010.2 645.812 2019.15 647.167 2027.38 649.875C2035.61 652.531 2042.85 656.437 2049.1 661.594C2055.35 666.698 2060.43 672.974 2064.34 680.422C2068.24 687.87 2070.66 696.385 2071.6 705.969ZM2093.73 808V648H2159.82C2171.8 648 2182.14 650.161 2190.84 654.484C2199.59 658.755 2206.33 664.901 2211.07 672.922C2215.81 680.891 2218.18 690.344 2218.18 701.281C2218.18 712.375 2215.76 721.802 2210.92 729.562C2206.07 737.271 2199.2 743.156 2190.29 747.219C2181.39 751.229 2170.84 753.234 2158.65 753.234H2116.86V722.766H2151.46C2157.3 722.766 2162.17 722.01 2166.07 720.5C2170.03 718.937 2173.03 716.594 2175.06 713.469C2177.09 710.292 2178.11 706.229 2178.11 701.281C2178.11 696.333 2177.09 692.245 2175.06 689.016C2173.03 685.734 2170.03 683.286 2166.07 681.672C2162.12 680.005 2157.25 679.172 2151.46 679.172H2132.4V808H2093.73ZM2183.81 734.875L2223.65 808H2181.46L2142.4 734.875H2183.81ZM2224.34 648H2267.54L2301.37 714.953H2302.77L2336.6 648H2379.8L2321.29 754.562V808H2282.85V754.562L2224.34 648ZM2396.02 808V648H2462.11C2474.09 648 2484.43 650.344 2493.13 655.031C2501.88 659.667 2508.62 666.151 2513.36 674.484C2518.1 682.766 2520.47 692.401 2520.47 703.391C2520.47 714.432 2518.05 724.094 2513.2 732.375C2508.41 740.604 2501.56 746.984 2492.66 751.516C2483.75 756.047 2473.18 758.312 2460.94 758.312H2420.16V727.844H2453.75C2459.58 727.844 2464.45 726.828 2468.36 724.797C2472.32 722.766 2475.31 719.927 2477.34 716.281C2479.38 712.583 2480.39 708.286 2480.39 703.391C2480.39 698.443 2479.38 694.172 2477.34 690.578C2475.31 686.932 2472.32 684.12 2468.36 682.141C2464.4 680.161 2459.53 679.172 2453.75 679.172H2434.69V808H2396.02ZM2534.3 679.406V648H2669.53V679.406H2621.02V808H2582.89V679.406H2534.3ZM2727.09 648V808H2688.42V648H2727.09ZM2902.38 728C2902.38 745.604 2899 760.526 2892.23 772.766C2885.46 785.005 2876.29 794.302 2864.73 800.656C2853.22 807.01 2840.3 810.187 2825.98 810.187C2811.6 810.187 2798.66 806.984 2787.15 800.578C2775.64 794.172 2766.5 784.875 2759.73 772.687C2753.01 760.448 2749.65 745.552 2749.65 728C2749.65 710.396 2753.01 695.474 2759.73 683.234C2766.5 670.995 2775.64 661.698 2787.15 655.344C2798.66 648.99 2811.6 645.812 2825.98 645.812C2840.3 645.812 2853.22 648.99 2864.73 655.344C2876.29 661.698 2885.46 670.995 2892.23 683.234C2899 695.474 2902.38 710.396 2902.38 728ZM2862.85 728C2862.85 717.583 2861.37 708.781 2858.4 701.594C2855.48 694.406 2851.26 688.964 2845.74 685.266C2840.27 681.568 2833.68 679.719 2825.98 679.719C2818.32 679.719 2811.73 681.568 2806.21 685.266C2800.69 688.964 2796.45 694.406 2793.48 701.594C2790.56 708.781 2789.1 717.583 2789.1 728C2789.1 738.417 2790.56 747.219 2793.48 754.406C2796.45 761.594 2800.69 767.036 2806.21 770.734C2811.73 774.432 2818.32 776.281 2825.98 776.281C2833.68 776.281 2840.27 774.432 2845.74 770.734C2851.26 767.036 2855.48 761.594 2858.4 754.406C2861.37 747.219 2862.85 738.417 2862.85 728ZM3061.13 648V808H3028.32L2964.65 715.656H2963.63V808H2924.96V648H2958.24L3021.21 740.187H3022.54V648H3061.13Z"/>
</mask>
<path d="M1253.59 695.969C1253.07 690.24 1250.76 685.786 1246.64 682.609C1242.58 679.38 1236.77 677.766 1229.22 677.766C1224.22 677.766 1220.05 678.417 1216.72 679.719C1213.39 681.021 1210.89 682.818 1209.22 685.109C1207.55 687.349 1206.69 689.927 1206.64 692.844C1206.54 695.24 1207.01 697.349 1208.05 699.172C1209.14 700.995 1210.7 702.609 1212.73 704.016C1214.82 705.37 1217.32 706.568 1220.23 707.609C1223.15 708.651 1226.43 709.562 1230.08 710.344L1243.83 713.469C1251.74 715.188 1258.72 717.479 1264.77 720.344C1270.86 723.208 1275.96 726.62 1280.08 730.578C1284.24 734.536 1287.4 739.094 1289.53 744.25C1291.67 749.406 1292.76 755.187 1292.81 761.594C1292.76 771.698 1290.21 780.37 1285.16 787.609C1280.1 794.849 1272.84 800.396 1263.36 804.25C1253.93 808.104 1242.55 810.031 1229.22 810.031C1215.83 810.031 1204.17 808.026 1194.22 804.016C1184.27 800.005 1176.54 793.911 1171.02 785.734C1165.49 777.557 1162.66 767.219 1162.5 754.719H1199.53C1199.84 759.875 1201.22 764.172 1203.67 767.609C1206.12 771.047 1209.48 773.651 1213.75 775.422C1218.07 777.193 1223.07 778.078 1228.75 778.078C1233.96 778.078 1238.39 777.375 1242.03 775.969C1245.73 774.563 1248.57 772.609 1250.55 770.109C1252.53 767.609 1253.54 764.745 1253.59 761.516C1253.54 758.495 1252.6 755.917 1250.78 753.781C1248.96 751.594 1246.15 749.719 1242.34 748.156C1238.59 746.542 1233.8 745.057 1227.97 743.703L1211.25 739.797C1197.4 736.62 1186.48 731.49 1178.52 724.406C1170.55 717.271 1166.59 707.635 1166.64 695.5C1166.59 685.604 1169.24 676.932 1174.61 669.484C1179.97 662.036 1187.4 656.229 1196.88 652.063C1206.35 647.896 1217.16 645.812 1229.3 645.812C1241.69 645.812 1252.45 647.922 1261.56 652.141C1270.73 656.307 1277.84 662.167 1282.89 669.719C1287.94 677.271 1290.52 686.021 1290.63 695.969H1253.59ZM1398.83 695.969C1398.31 690.24 1395.99 685.786 1391.88 682.609C1387.81 679.38 1382.01 677.766 1374.45 677.766C1369.45 677.766 1365.29 678.417 1361.95 679.719C1358.62 681.021 1356.12 682.818 1354.45 685.109C1352.79 687.349 1351.93 689.927 1351.88 692.844C1351.77 695.24 1352.24 697.349 1353.28 699.172C1354.38 700.995 1355.94 702.609 1357.97 704.016C1360.05 705.37 1362.55 706.568 1365.47 707.609C1368.39 708.651 1371.67 709.562 1375.31 710.344L1389.06 713.469C1396.98 715.188 1403.96 717.479 1410 720.344C1416.09 723.208 1421.2 726.62 1425.31 730.578C1429.48 734.536 1432.63 739.094 1434.77 744.25C1436.9 749.406 1437.99 755.187 1438.05 761.594C1437.99 771.698 1435.44 780.37 1430.39 787.609C1425.34 794.849 1418.07 800.396 1408.59 804.25C1399.17 808.104 1387.79 810.031 1374.45 810.031C1361.07 810.031 1349.4 808.026 1339.45 804.016C1329.51 800.005 1321.77 793.911 1316.25 785.734C1310.73 777.557 1307.89 767.219 1307.73 754.719H1344.77C1345.08 759.875 1346.46 764.172 1348.91 767.609C1351.35 771.047 1354.71 773.651 1358.98 775.422C1363.31 777.193 1368.31 778.078 1373.98 778.078C1379.19 778.078 1383.62 777.375 1387.27 775.969C1390.96 774.563 1393.8 772.609 1395.78 770.109C1397.76 767.609 1398.78 764.745 1398.83 761.516C1398.78 758.495 1397.84 755.917 1396.02 753.781C1394.19 751.594 1391.38 749.719 1387.58 748.156C1383.83 746.542 1379.04 745.057 1373.2 743.703L1356.48 739.797C1342.63 736.62 1331.72 731.49 1323.75 724.406C1315.78 717.271 1311.82 707.635 1311.88 695.5C1311.82 685.604 1314.48 676.932 1319.84 669.484C1325.21 662.036 1332.63 656.229 1342.11 652.063C1351.59 647.896 1362.4 645.812 1374.53 645.812C1386.93 645.812 1397.68 647.922 1406.8 652.141C1415.96 656.307 1423.07 662.167 1428.13 669.719C1433.18 677.271 1435.76 686.021 1435.86 695.969H1398.83ZM1457.58 808V648H1496.25V776.594H1562.81V808H1457.58ZM1630.1 808V648H1741.66V679.406H1668.77V712.219H1735.96V743.703H1668.77V776.594H1741.66V808H1630.1ZM1902.05 648V808H1869.24L1805.57 715.656H1804.55V808H1765.88V648H1799.16L1862.13 740.187H1863.46V648H1902.05ZM2071.6 705.969H2032.54C2032.02 701.958 2030.95 698.339 2029.34 695.109C2027.72 691.88 2025.59 689.12 2022.93 686.828C2020.27 684.536 2017.12 682.792 2013.48 681.594C2009.88 680.344 2005.9 679.719 2001.52 679.719C1993.76 679.719 1987.07 681.62 1981.45 685.422C1975.87 689.224 1971.58 694.719 1968.55 701.906C1965.59 709.094 1964.1 717.792 1964.1 728C1964.1 738.625 1965.61 747.531 1968.63 754.719C1971.71 761.854 1976 767.245 1981.52 770.891C1987.1 774.484 1993.68 776.281 2001.29 776.281C2005.56 776.281 2009.44 775.734 2012.93 774.641C2016.47 773.547 2019.57 771.958 2022.23 769.875C2024.93 767.74 2027.15 765.161 2028.87 762.141C2030.64 759.068 2031.86 755.604 2032.54 751.75L2071.6 751.984C2070.92 759.068 2068.87 766.047 2065.43 772.922C2062.04 779.797 2057.38 786.073 2051.45 791.75C2045.51 797.375 2038.27 801.854 2029.73 805.187C2021.24 808.521 2011.5 810.187 2000.51 810.187C1986.03 810.187 1973.06 807.01 1961.6 800.656C1950.2 794.25 1941.18 784.927 1934.57 772.687C1927.96 760.448 1924.65 745.552 1924.65 728C1924.65 710.396 1928.01 695.474 1934.73 683.234C1941.45 670.995 1950.53 661.698 1961.99 655.344C1973.45 648.99 1986.29 645.812 2000.51 645.812C2010.2 645.812 2019.15 647.167 2027.38 649.875C2035.61 652.531 2042.85 656.437 2049.1 661.594C2055.35 666.698 2060.43 672.974 2064.34 680.422C2068.24 687.87 2070.66 696.385 2071.6 705.969ZM2093.73 808V648H2159.82C2171.8 648 2182.14 650.161 2190.84 654.484C2199.59 658.755 2206.33 664.901 2211.07 672.922C2215.81 680.891 2218.18 690.344 2218.18 701.281C2218.18 712.375 2215.76 721.802 2210.92 729.562C2206.07 737.271 2199.2 743.156 2190.29 747.219C2181.39 751.229 2170.84 753.234 2158.65 753.234H2116.86V722.766H2151.46C2157.3 722.766 2162.17 722.01 2166.07 720.5C2170.03 718.937 2173.03 716.594 2175.06 713.469C2177.09 710.292 2178.11 706.229 2178.11 701.281C2178.11 696.333 2177.09 692.245 2175.06 689.016C2173.03 685.734 2170.03 683.286 2166.07 681.672C2162.12 680.005 2157.25 679.172 2151.46 679.172H2132.4V808H2093.73ZM2183.81 734.875L2223.65 808H2181.46L2142.4 734.875H2183.81ZM2224.34 648H2267.54L2301.37 714.953H2302.77L2336.6 648H2379.8L2321.29 754.562V808H2282.85V754.562L2224.34 648ZM2396.02 808V648H2462.11C2474.09 648 2484.43 650.344 2493.13 655.031C2501.88 659.667 2508.62 666.151 2513.36 674.484C2518.1 682.766 2520.47 692.401 2520.47 703.391C2520.47 714.432 2518.05 724.094 2513.2 732.375C2508.41 740.604 2501.56 746.984 2492.66 751.516C2483.75 756.047 2473.18 758.312 2460.94 758.312H2420.16V727.844H2453.75C2459.58 727.844 2464.45 726.828 2468.36 724.797C2472.32 722.766 2475.31 719.927 2477.34 716.281C2479.38 712.583 2480.39 708.286 2480.39 703.391C2480.39 698.443 2479.38 694.172 2477.34 690.578C2475.31 686.932 2472.32 684.12 2468.36 682.141C2464.4 680.161 2459.53 679.172 2453.75 679.172H2434.69V808H2396.02ZM2534.3 679.406V648H2669.53V679.406H2621.02V808H2582.89V679.406H2534.3ZM2727.09 648V808H2688.42V648H2727.09ZM2902.38 728C2902.38 745.604 2899 760.526 2892.23 772.766C2885.46 785.005 2876.29 794.302 2864.73 800.656C2853.22 807.01 2840.3 810.187 2825.98 810.187C2811.6 810.187 2798.66 806.984 2787.15 800.578C2775.64 794.172 2766.5 784.875 2759.73 772.687C2753.01 760.448 2749.65 745.552 2749.65 728C2749.65 710.396 2753.01 695.474 2759.73 683.234C2766.5 670.995 2775.64 661.698 2787.15 655.344C2798.66 648.99 2811.6 645.812 2825.98 645.812C2840.3 645.812 2853.22 648.99 2864.73 655.344C2876.29 661.698 2885.46 670.995 2892.23 683.234C2899 695.474 2902.38 710.396 2902.38 728ZM2862.85 728C2862.85 717.583 2861.37 708.781 2858.4 701.594C2855.48 694.406 2851.26 688.964 2845.74 685.266C2840.27 681.568 2833.68 679.719 2825.98 679.719C2818.32 679.719 2811.73 681.568 2806.21 685.266C2800.69 688.964 2796.45 694.406 2793.48 701.594C2790.56 708.781 2789.1 717.583 2789.1 728C2789.1 738.417 2790.56 747.219 2793.48 754.406C2796.45 761.594 2800.69 767.036 2806.21 770.734C2811.73 774.432 2818.32 776.281 2825.98 776.281C2833.68 776.281 2840.27 774.432 2845.74 770.734C2851.26 767.036 2855.48 761.594 2858.4 754.406C2861.37 747.219 2862.85 738.417 2862.85 728ZM3061.13 648V808H3028.32L2964.65 715.656H2963.63V808H2924.96V648H2958.24L3021.21 740.187H3022.54V648H3061.13Z" fill="white"/>
<path d="M1253.59 695.969L1252.6 696.059L1252.68 696.969H1253.59V695.969ZM1246.64 682.609L1246.02 683.392L1246.03 683.401L1246.64 682.609ZM1216.72 679.719L1216.35 678.787L1216.35 678.787L1216.72 679.719ZM1209.22 685.109L1210.02 685.706L1210.03 685.698L1209.22 685.109ZM1206.64 692.844L1207.64 692.887L1207.64 692.874L1207.64 692.862L1206.64 692.844ZM1208.05 699.172L1207.18 699.668L1207.18 699.677L1207.19 699.686L1208.05 699.172ZM1212.73 704.016L1212.17 704.838L1212.18 704.846L1212.19 704.854L1212.73 704.016ZM1220.23 707.609L1220.57 706.668L1220.57 706.668L1220.23 707.609ZM1230.08 710.344L1230.3 709.369L1230.29 709.366L1230.08 710.344ZM1243.83 713.469L1243.61 714.444L1243.62 714.446L1243.83 713.469ZM1264.77 720.344L1264.34 721.247L1264.34 721.249L1264.77 720.344ZM1280.08 730.578L1279.38 731.299L1279.39 731.303L1280.08 730.578ZM1289.53 744.25L1288.61 744.633L1288.61 744.633L1289.53 744.25ZM1292.81 761.594L1293.81 761.599L1293.81 761.586L1292.81 761.594ZM1285.16 787.609L1284.34 787.037L1284.34 787.037L1285.16 787.609ZM1263.36 804.25L1262.98 803.324L1262.98 803.324L1263.36 804.25ZM1194.22 804.016L1194.59 803.088L1194.59 803.088L1194.22 804.016ZM1171.02 785.734L1170.19 786.294L1171.02 785.734ZM1162.5 754.719V753.719H1161.49L1161.5 754.731L1162.5 754.719ZM1199.53 754.719L1200.53 754.658L1200.47 753.719H1199.53V754.719ZM1203.67 767.609L1202.86 768.189L1202.86 768.189L1203.67 767.609ZM1213.75 775.422L1213.37 776.346L1213.37 776.347L1213.75 775.422ZM1242.03 775.969L1241.68 775.034L1241.67 775.036L1242.03 775.969ZM1250.55 770.109L1249.76 769.489L1249.76 769.489L1250.55 770.109ZM1253.59 761.516L1254.59 761.532L1254.59 761.515L1254.59 761.498L1253.59 761.516ZM1250.78 753.781L1250.01 754.421L1250.02 754.431L1250.78 753.781ZM1242.34 748.156L1241.95 749.075L1241.96 749.078L1241.96 749.081L1242.34 748.156ZM1227.97 743.703L1227.74 744.677L1227.74 744.677L1227.97 743.703ZM1211.25 739.797L1211.48 738.823L1211.47 738.822L1211.25 739.797ZM1178.52 724.406L1177.85 725.151L1177.85 725.154L1178.52 724.406ZM1166.64 695.5L1167.64 695.504L1167.64 695.495L1166.64 695.5ZM1174.61 669.484L1173.8 668.9L1173.8 668.9L1174.61 669.484ZM1196.88 652.063L1197.28 652.978L1197.28 652.978L1196.88 652.063ZM1261.56 652.141L1261.14 653.048L1261.15 653.051L1261.56 652.141ZM1282.89 669.719L1283.72 669.163L1283.72 669.163L1282.89 669.719ZM1290.63 695.969V696.969H1291.64L1291.62 695.958L1290.63 695.969ZM1254.59 695.878C1254.05 689.905 1251.61 685.184 1247.25 681.818L1246.03 683.401C1249.9 686.389 1252.1 690.574 1252.6 696.059L1254.59 695.878ZM1247.26 681.827C1242.96 678.405 1236.9 676.766 1229.22 676.766V678.766C1236.64 678.766 1242.2 680.355 1246.02 683.392L1247.26 681.827ZM1229.22 676.766C1224.14 676.766 1219.84 677.426 1216.35 678.787L1217.08 680.65C1220.26 679.408 1224.3 678.766 1229.22 678.766V676.766ZM1216.35 678.787C1212.89 680.141 1210.22 682.039 1208.41 684.521L1210.03 685.698C1211.56 683.596 1213.88 681.901 1217.08 680.65L1216.35 678.787ZM1208.42 684.512C1206.62 686.927 1205.7 689.71 1205.64 692.826L1207.64 692.862C1207.69 690.144 1208.48 687.77 1210.02 685.706L1208.42 684.512ZM1205.64 692.8C1205.53 695.357 1206.03 697.659 1207.18 699.668L1208.92 698.676C1207.98 697.039 1207.54 695.122 1207.64 692.887L1205.64 692.8ZM1207.19 699.686C1208.37 701.649 1210.04 703.364 1212.17 704.838L1213.3 703.193C1211.37 701.855 1209.91 700.34 1208.9 698.657L1207.19 699.686ZM1212.19 704.854C1214.35 706.26 1216.93 707.489 1219.9 708.551L1220.57 706.668C1217.71 705.646 1215.28 704.48 1213.28 703.177L1212.19 704.854ZM1219.9 708.551C1222.86 709.61 1226.19 710.533 1229.87 711.322L1230.29 709.366C1226.68 708.592 1223.44 707.692 1220.57 706.668L1219.9 708.551ZM1229.86 711.319L1243.61 714.444L1244.05 712.494L1230.3 709.369L1229.86 711.319ZM1243.62 714.446C1251.47 716.152 1258.38 718.422 1264.34 721.247L1265.19 719.44C1259.07 716.537 1252.02 714.223 1244.04 712.492L1243.62 714.446ZM1264.34 721.249C1270.35 724.075 1275.36 727.428 1279.38 731.299L1280.77 729.857C1276.57 725.811 1271.37 722.342 1265.19 719.439L1264.34 721.249ZM1279.39 731.303C1283.46 735.168 1286.53 739.61 1288.61 744.633L1290.46 743.867C1288.26 738.578 1285.03 733.905 1280.77 729.853L1279.39 731.303ZM1288.61 744.633C1290.69 749.654 1291.76 755.305 1291.81 761.602L1293.81 761.586C1293.76 755.07 1292.65 749.159 1290.46 743.867L1288.61 744.633ZM1291.81 761.589C1291.76 771.52 1289.26 779.987 1284.34 787.037L1285.98 788.182C1291.16 780.752 1293.76 771.876 1293.81 761.599L1291.81 761.589ZM1284.34 787.037C1279.41 794.094 1272.31 799.53 1262.98 803.324L1263.74 805.176C1273.36 801.261 1280.8 795.604 1285.98 788.182L1284.34 787.037ZM1262.98 803.324C1253.7 807.117 1242.46 809.031 1229.22 809.031V811.031C1242.64 811.031 1254.16 809.092 1263.74 805.176L1262.98 803.324ZM1229.22 809.031C1215.93 809.031 1204.4 807.04 1194.59 803.088L1193.84 804.943C1203.94 809.012 1215.74 811.031 1229.22 811.031V809.031ZM1194.59 803.088C1184.81 799.145 1177.24 793.172 1171.84 785.175L1170.19 786.294C1175.83 794.651 1183.73 800.865 1193.84 804.943L1194.59 803.088ZM1171.84 785.175C1166.46 777.198 1163.65 767.063 1163.5 754.706L1161.5 754.731C1161.66 767.375 1164.53 777.917 1170.19 786.294L1171.84 785.175ZM1162.5 755.719H1199.53V753.719H1162.5V755.719ZM1198.53 754.779C1198.85 760.08 1200.28 764.568 1202.86 768.189L1204.49 767.029C1202.17 763.775 1200.83 759.67 1200.53 754.658L1198.53 754.779ZM1202.86 768.189C1205.42 771.794 1208.94 774.51 1213.37 776.346L1214.13 774.498C1210.02 772.792 1206.82 770.3 1204.49 767.029L1202.86 768.189ZM1213.37 776.347C1217.84 778.177 1222.97 779.078 1228.75 779.078V777.078C1223.18 777.078 1218.31 776.209 1214.13 774.497L1213.37 776.347ZM1228.75 779.078C1234.04 779.078 1238.6 778.364 1242.39 776.902L1241.67 775.036C1238.17 776.386 1233.87 777.078 1228.75 777.078V779.078ZM1242.39 776.903C1246.21 775.448 1249.22 773.402 1251.33 770.73L1249.76 769.489C1247.92 771.817 1245.25 773.677 1241.68 775.034L1242.39 776.903ZM1251.33 770.73C1253.45 768.055 1254.54 764.978 1254.59 761.532L1252.59 761.499C1252.55 764.512 1251.6 767.163 1249.76 769.489L1251.33 770.73ZM1254.59 761.498C1254.54 758.264 1253.53 755.458 1251.54 753.132L1250.02 754.431C1251.68 756.375 1252.55 758.725 1252.59 761.533L1254.59 761.498ZM1251.55 753.141C1249.59 750.785 1246.61 748.83 1242.72 747.231L1241.96 749.081C1245.68 750.607 1248.33 752.402 1250.01 754.421L1251.55 753.141ZM1242.74 747.238C1238.92 745.592 1234.06 744.091 1228.19 742.729L1227.74 744.677C1233.54 746.024 1238.27 747.492 1241.95 749.075L1242.74 747.238ZM1228.2 742.729L1211.48 738.823L1211.02 740.771L1227.74 744.677L1228.2 742.729ZM1211.47 738.822C1197.73 735.671 1186.99 730.6 1179.18 723.659L1177.85 725.154C1185.98 732.38 1197.06 737.569 1211.03 740.772L1211.47 738.822ZM1179.18 723.661C1171.46 716.743 1167.59 707.397 1167.64 695.504L1165.64 695.496C1165.59 707.874 1169.64 717.798 1177.85 725.151L1179.18 723.661ZM1167.64 695.495C1167.59 685.793 1170.19 677.331 1175.42 670.069L1173.8 668.9C1168.3 676.533 1165.59 685.415 1165.64 695.505L1167.64 695.495ZM1175.42 670.069C1180.67 662.784 1187.94 657.082 1197.28 652.978L1196.47 651.147C1186.85 655.376 1179.28 661.289 1173.8 668.9L1175.42 670.069ZM1197.28 652.978C1206.61 648.876 1217.28 646.812 1229.3 646.812V644.812C1217.05 644.812 1206.1 646.916 1196.47 651.147L1197.28 652.978ZM1229.3 646.812C1241.58 646.812 1252.19 648.903 1261.14 653.048L1261.98 651.233C1252.71 646.941 1241.8 644.812 1229.3 644.812V646.812ZM1261.15 653.051C1270.16 657.149 1277.12 662.894 1282.06 670.275L1283.72 669.163C1278.56 661.44 1271.29 655.465 1261.98 651.23L1261.15 653.051ZM1282.06 670.275C1286.99 677.65 1289.52 686.206 1289.63 695.979L1291.62 695.958C1291.52 685.835 1288.89 676.892 1283.72 669.163L1282.06 670.275ZM1290.63 694.969H1253.59V696.969H1290.63V694.969ZM1398.83 695.969L1397.83 696.059L1397.91 696.969H1398.83V695.969ZM1391.88 682.609L1391.25 683.392L1391.26 683.401L1391.88 682.609ZM1361.95 679.719L1361.59 678.787L1361.59 678.787L1361.95 679.719ZM1354.45 685.109L1355.26 685.706L1355.26 685.698L1354.45 685.109ZM1351.88 692.844L1352.87 692.887L1352.87 692.874L1352.87 692.862L1351.88 692.844ZM1353.28 699.172L1352.41 699.668L1352.42 699.677L1352.42 699.686L1353.28 699.172ZM1357.97 704.016L1357.4 704.838L1357.41 704.846L1357.42 704.854L1357.97 704.016ZM1365.47 707.609L1365.81 706.668L1365.81 706.668L1365.47 707.609ZM1375.31 710.344L1375.53 709.369L1375.52 709.366L1375.31 710.344ZM1389.06 713.469L1388.84 714.444L1388.85 714.446L1389.06 713.469ZM1410 720.344L1409.57 721.247L1409.57 721.249L1410 720.344ZM1425.31 730.578L1424.62 731.299L1424.62 731.303L1425.31 730.578ZM1434.77 744.25L1433.84 744.633L1433.84 744.633L1434.77 744.25ZM1438.05 761.594L1439.05 761.599L1439.05 761.586L1438.05 761.594ZM1430.39 787.609L1429.57 787.037L1429.57 787.037L1430.39 787.609ZM1408.59 804.25L1408.22 803.324L1408.22 803.324L1408.59 804.25ZM1339.45 804.016L1339.83 803.088L1339.83 803.088L1339.45 804.016ZM1316.25 785.734L1315.42 786.294L1316.25 785.734ZM1307.73 754.719V753.719H1306.72L1306.73 754.731L1307.73 754.719ZM1344.77 754.719L1345.76 754.658L1345.71 753.719H1344.77V754.719ZM1348.91 767.609L1348.09 768.189L1348.09 768.189L1348.91 767.609ZM1358.98 775.422L1358.6 776.346L1358.61 776.347L1358.98 775.422ZM1387.27 775.969L1386.91 775.034L1386.91 775.036L1387.27 775.969ZM1395.78 770.109L1395 769.489L1395 769.489L1395.78 770.109ZM1398.83 761.516L1399.83 761.532L1399.83 761.515L1399.83 761.498L1398.83 761.516ZM1396.02 753.781L1395.25 754.421L1395.26 754.431L1396.02 753.781ZM1387.58 748.156L1387.18 749.075L1387.19 749.078L1387.2 749.081L1387.58 748.156ZM1373.2 743.703L1372.98 744.677L1372.98 744.677L1373.2 743.703ZM1356.48 739.797L1356.71 738.823L1356.71 738.822L1356.48 739.797ZM1323.75 724.406L1323.08 725.151L1323.09 725.154L1323.75 724.406ZM1311.88 695.5L1312.88 695.504L1312.87 695.495L1311.88 695.5ZM1319.84 669.484L1319.03 668.9L1319.03 668.9L1319.84 669.484ZM1342.11 652.063L1342.51 652.978L1342.51 652.978L1342.11 652.063ZM1406.8 652.141L1406.38 653.048L1406.38 653.051L1406.8 652.141ZM1428.13 669.719L1428.96 669.163L1428.96 669.163L1428.13 669.719ZM1435.86 695.969V696.969H1436.87L1436.86 695.958L1435.86 695.969ZM1399.82 695.878C1399.28 689.905 1396.85 685.184 1392.49 681.818L1391.26 683.401C1395.13 686.389 1397.33 690.574 1397.83 696.059L1399.82 695.878ZM1392.5 681.827C1388.19 678.405 1382.13 676.766 1374.45 676.766V678.766C1381.88 678.766 1387.43 680.355 1391.25 683.392L1392.5 681.827ZM1374.45 676.766C1369.37 676.766 1365.07 677.426 1361.59 678.787L1362.32 680.65C1365.5 679.408 1369.53 678.766 1374.45 678.766V676.766ZM1361.59 678.787C1358.12 680.141 1355.45 682.039 1353.64 684.521L1355.26 685.698C1356.79 683.596 1359.12 681.901 1362.32 680.65L1361.59 678.787ZM1353.65 684.512C1351.85 686.927 1350.93 689.71 1350.88 692.826L1352.87 692.862C1352.92 690.144 1353.72 687.77 1355.26 685.706L1353.65 684.512ZM1350.88 692.8C1350.76 695.357 1351.26 697.659 1352.41 699.668L1354.15 698.676C1353.21 697.039 1352.78 695.122 1352.87 692.887L1350.88 692.8ZM1352.42 699.686C1353.6 701.649 1355.27 703.364 1357.4 704.838L1358.54 703.193C1356.6 701.855 1355.15 700.34 1354.14 698.657L1352.42 699.686ZM1357.42 704.854C1359.59 706.26 1362.16 707.489 1365.13 708.551L1365.81 706.668C1362.94 705.646 1360.52 704.48 1358.51 703.177L1357.42 704.854ZM1365.13 708.551C1368.1 709.61 1371.42 710.533 1375.1 711.322L1375.52 709.366C1371.91 708.592 1368.67 707.692 1365.81 706.668L1365.13 708.551ZM1375.09 711.319L1388.84 714.444L1389.28 712.494L1375.53 709.369L1375.09 711.319ZM1388.85 714.446C1396.71 716.152 1403.61 718.422 1409.57 721.247L1410.43 719.44C1404.31 716.537 1397.25 714.223 1389.27 712.492L1388.85 714.446ZM1409.57 721.249C1415.59 724.075 1420.6 727.428 1424.62 731.299L1426.01 729.857C1421.8 725.811 1416.6 722.342 1410.43 719.439L1409.57 721.249ZM1424.62 731.303C1428.69 735.168 1431.76 739.61 1433.84 744.633L1435.69 743.867C1433.5 738.578 1430.27 733.905 1426 729.853L1424.62 731.303ZM1433.84 744.633C1435.92 749.654 1437 755.305 1437.05 761.602L1439.05 761.586C1438.99 755.07 1437.88 749.159 1435.69 743.867L1433.84 744.633ZM1437.05 761.589C1437 771.52 1434.49 779.987 1429.57 787.037L1431.21 788.182C1436.4 780.752 1438.99 771.876 1439.05 761.599L1437.05 761.589ZM1429.57 787.037C1424.65 794.094 1417.55 799.53 1408.22 803.324L1408.97 805.176C1418.6 801.261 1426.03 795.604 1431.21 788.182L1429.57 787.037ZM1408.22 803.324C1398.94 807.117 1387.69 809.031 1374.45 809.031V811.031C1387.88 811.031 1399.39 809.092 1408.97 805.176L1408.22 803.324ZM1374.45 809.031C1361.17 809.031 1349.63 807.04 1339.83 803.088L1339.08 804.943C1349.17 809.012 1360.97 811.031 1374.45 811.031V809.031ZM1339.83 803.088C1330.05 799.145 1322.48 793.172 1317.08 785.175L1315.42 786.294C1321.06 794.651 1328.96 800.865 1339.08 804.943L1339.83 803.088ZM1317.08 785.175C1311.69 777.198 1308.89 767.063 1308.73 754.706L1306.73 754.731C1306.89 767.375 1309.77 777.917 1315.42 786.294L1317.08 785.175ZM1307.73 755.719H1344.77V753.719H1307.73V755.719ZM1343.77 754.779C1344.09 760.08 1345.51 764.568 1348.09 768.189L1349.72 767.029C1347.4 763.775 1346.07 759.67 1345.76 754.658L1343.77 754.779ZM1348.09 768.189C1350.66 771.794 1354.17 774.51 1358.6 776.346L1359.37 774.498C1355.25 772.792 1352.05 770.3 1349.72 767.029L1348.09 768.189ZM1358.61 776.347C1363.07 778.177 1368.2 779.078 1373.98 779.078V777.078C1368.41 777.078 1363.54 776.209 1359.36 774.497L1358.61 776.347ZM1373.98 779.078C1379.28 779.078 1383.83 778.364 1387.63 776.902L1386.91 775.036C1383.41 776.386 1379.11 777.078 1373.98 777.078V779.078ZM1387.62 776.903C1391.45 775.448 1394.45 773.402 1396.57 770.73L1395 769.489C1393.15 771.817 1390.48 773.677 1386.91 775.034L1387.62 776.903ZM1396.57 770.73C1398.68 768.055 1399.77 764.978 1399.83 761.532L1397.83 761.499C1397.78 764.512 1396.84 767.163 1395 769.489L1396.57 770.73ZM1399.83 761.498C1399.77 758.264 1398.76 755.458 1396.78 753.132L1395.26 754.431C1396.92 756.375 1397.78 758.725 1397.83 761.533L1399.83 761.498ZM1396.78 753.141C1394.82 750.785 1391.85 748.83 1387.96 747.231L1387.2 749.081C1390.91 750.607 1393.56 752.402 1395.25 754.421L1396.78 753.141ZM1387.97 747.238C1384.15 745.592 1379.3 744.091 1373.43 742.729L1372.98 744.677C1378.78 746.024 1383.51 747.492 1387.18 749.075L1387.97 747.238ZM1373.43 742.729L1356.71 738.823L1356.26 740.771L1372.98 744.677L1373.43 742.729ZM1356.71 738.822C1342.96 735.671 1332.22 730.6 1324.41 723.659L1323.09 725.154C1331.21 732.38 1342.3 737.569 1356.26 740.772L1356.71 738.822ZM1324.42 723.661C1316.69 716.743 1312.82 707.397 1312.87 695.504L1310.88 695.496C1310.82 707.874 1314.87 717.798 1323.08 725.151L1324.42 723.661ZM1312.87 695.495C1312.82 685.793 1315.42 677.331 1320.66 670.069L1319.03 668.9C1313.53 676.533 1310.82 685.415 1310.88 695.505L1312.87 695.495ZM1320.66 670.069C1325.9 662.784 1333.17 657.082 1342.51 652.978L1341.71 651.147C1332.09 655.376 1324.51 661.289 1319.03 668.9L1320.66 670.069ZM1342.51 652.978C1351.84 648.876 1362.51 646.812 1374.53 646.812V644.812C1362.28 644.812 1351.33 646.916 1341.71 651.147L1342.51 652.978ZM1374.53 646.812C1386.82 646.812 1397.42 648.903 1406.38 653.048L1407.22 651.233C1397.94 646.941 1387.04 644.812 1374.53 644.812V646.812ZM1406.38 653.051C1415.4 657.149 1422.36 662.894 1427.29 670.275L1428.96 669.163C1423.79 661.44 1416.53 655.465 1407.21 651.23L1406.38 653.051ZM1427.29 670.275C1432.23 677.65 1434.76 686.206 1434.86 695.979L1436.86 695.958C1436.75 685.835 1434.13 676.892 1428.96 669.163L1427.29 670.275ZM1435.86 694.969H1398.83V696.969H1435.86V694.969ZM1457.58 808H1456.58V809H1457.58V808ZM1457.58 648V647H1456.58V648H1457.58ZM1496.25 648H1497.25V647H1496.25V648ZM1496.25 776.594H1495.25V777.594H1496.25V776.594ZM1562.81 776.594H1563.81V775.594H1562.81V776.594ZM1562.81 808V809H1563.81V808H1562.81ZM1458.58 808V648H1456.58V808H1458.58ZM1457.58 649H1496.25V647H1457.58V649ZM1495.25 648V776.594H1497.25V648H1495.25ZM1496.25 777.594H1562.81V775.594H1496.25V777.594ZM1561.81 776.594V808H1563.81V776.594H1561.81ZM1562.81 807H1457.58V809H1562.81V807ZM1630.1 808H1629.1V809H1630.1V808ZM1630.1 648V647H1629.1V648H1630.1ZM1741.66 648H1742.66V647H1741.66V648ZM1741.66 679.406V680.406H1742.66V679.406H1741.66ZM1668.77 679.406V678.406H1667.77V679.406H1668.77ZM1668.77 712.219H1667.77V713.219H1668.77V712.219ZM1735.96 712.219H1736.96V711.219H1735.96V712.219ZM1735.96 743.703V744.703H1736.96V743.703H1735.96ZM1668.77 743.703V742.703H1667.77V743.703H1668.77ZM1668.77 776.594H1667.77V777.594H1668.77V776.594ZM1741.66 776.594H1742.66V775.594H1741.66V776.594ZM1741.66 808V809H1742.66V808H1741.66ZM1631.1 808V648H1629.1V808H1631.1ZM1630.1 649H1741.66V647H1630.1V649ZM1740.66 648V679.406H1742.66V648H1740.66ZM1741.66 678.406H1668.77V680.406H1741.66V678.406ZM1667.77 679.406V712.219H1669.77V679.406H1667.77ZM1668.77 713.219H1735.96V711.219H1668.77V713.219ZM1734.96 712.219V743.703H1736.96V712.219H1734.96ZM1735.96 742.703H1668.77V744.703H1735.96V742.703ZM1667.77 743.703V776.594H1669.77V743.703H1667.77ZM1668.77 777.594H1741.66V775.594H1668.77V777.594ZM1740.66 776.594V808H1742.66V776.594H1740.66ZM1741.66 807H1630.1V809H1741.66V807ZM1902.05 648H1903.05V647H1902.05V648ZM1902.05 808V809H1903.05V808H1902.05ZM1869.24 808L1868.42 808.568L1868.71 809H1869.24V808ZM1805.57 715.656L1806.39 715.089L1806.09 714.656H1805.57V715.656ZM1804.55 715.656V714.656H1803.55V715.656H1804.55ZM1804.55 808V809H1805.55V808H1804.55ZM1765.88 808H1764.88V809H1765.88V808ZM1765.88 648V647H1764.88V648H1765.88ZM1799.16 648L1799.99 647.436L1799.69 647H1799.16V648ZM1862.13 740.187L1861.3 740.752L1861.6 741.187H1862.13V740.187ZM1863.46 740.187V741.187H1864.46V740.187H1863.46ZM1863.46 648V647H1862.46V648H1863.46ZM1901.05 648V808H1903.05V648H1901.05ZM1902.05 807H1869.24V809H1902.05V807ZM1870.06 807.432L1806.39 715.089L1804.74 716.224L1868.42 808.568L1870.06 807.432ZM1805.57 714.656H1804.55V716.656H1805.57V714.656ZM1803.55 715.656V808H1805.55V715.656H1803.55ZM1804.55 807H1765.88V809H1804.55V807ZM1766.88 808V648H1764.88V808H1766.88ZM1765.88 649H1799.16V647H1765.88V649ZM1798.33 648.564L1861.3 740.752L1862.95 739.623L1799.99 647.436L1798.33 648.564ZM1862.13 741.187H1863.46V739.187H1862.13V741.187ZM1864.46 740.187V648H1862.46V740.187H1864.46ZM1863.46 649H1902.05V647H1863.46V649ZM2071.6 705.969V706.969H2072.7L2072.6 705.871L2071.6 705.969ZM2032.54 705.969L2031.55 706.098L2031.66 706.969H2032.54V705.969ZM2029.34 695.109L2028.44 695.557L2028.44 695.557L2029.34 695.109ZM2022.93 686.828L2023.58 686.071L2023.58 686.071L2022.93 686.828ZM2013.48 681.594L2013.15 682.538L2013.16 682.541L2013.16 682.544L2013.48 681.594ZM1981.45 685.422L1980.89 684.593L1980.88 684.596L1981.45 685.422ZM1968.55 701.906L1967.63 701.519L1967.63 701.524L1968.55 701.906ZM1968.63 754.719L1967.71 755.106L1967.71 755.114L1968.63 754.719ZM1981.52 770.891L1980.97 771.725L1980.98 771.731L1981.52 770.891ZM2012.93 774.641L2012.63 773.685L2012.63 773.686L2012.93 774.641ZM2022.23 769.875L2022.84 770.662L2022.85 770.66L2022.23 769.875ZM2028.87 762.141L2028 761.641L2028 761.646L2028.87 762.141ZM2032.54 751.75L2032.55 750.75L2031.7 750.745L2031.55 751.577L2032.54 751.75ZM2071.6 751.984L2072.6 752.08L2072.7 750.991L2071.61 750.984L2071.6 751.984ZM2065.43 772.922L2064.54 772.475L2064.53 772.48L2065.43 772.922ZM2051.45 791.75L2052.13 792.476L2052.14 792.473L2051.45 791.75ZM2029.73 805.187L2029.36 804.256L2029.36 804.257L2029.73 805.187ZM1961.6 800.656L1961.11 801.528L1961.12 801.531L1961.6 800.656ZM1934.57 772.687L1935.45 772.212L1934.57 772.687ZM1934.73 683.234L1933.85 682.753L1933.85 682.753L1934.73 683.234ZM2027.38 649.875L2027.07 650.825L2027.08 650.827L2027.38 649.875ZM2049.1 661.594L2048.47 662.365L2048.47 662.368L2049.1 661.594ZM2071.6 704.969H2032.54V706.969H2071.6V704.969ZM2033.53 705.84C2033 701.732 2031.9 698.003 2030.23 694.662L2028.44 695.557C2030 698.675 2031.04 702.185 2031.55 706.098L2033.53 705.84ZM2030.23 694.662C2028.56 691.318 2026.34 688.452 2023.58 686.071L2022.28 687.585C2024.83 689.788 2026.88 692.442 2028.44 695.557L2030.23 694.662ZM2023.58 686.071C2020.82 683.685 2017.55 681.879 2013.79 680.644L2013.16 682.544C2016.7 683.704 2019.73 685.388 2022.28 687.585L2023.58 686.071ZM2013.81 680.649C2010.09 679.357 2005.99 678.719 2001.52 678.719V680.719C2005.8 680.719 2009.67 681.33 2013.15 682.538L2013.81 680.649ZM2001.52 678.719C1993.59 678.719 1986.7 680.664 1980.89 684.593L1982.01 686.25C1987.44 682.575 1993.93 680.719 2001.52 680.719V678.719ZM1980.88 684.596C1975.13 688.523 1970.72 694.182 1967.63 701.519L1969.48 702.294C1972.43 695.256 1976.62 689.925 1982.01 686.248L1980.88 684.596ZM1967.63 701.524C1964.6 708.864 1963.1 717.7 1963.1 728H1965.1C1965.1 717.884 1966.57 709.323 1969.48 702.288L1967.63 701.524ZM1963.1 728C1963.1 738.713 1964.62 747.76 1967.71 755.106L1969.55 754.331C1966.6 747.302 1965.1 738.537 1965.1 728H1963.1ZM1967.71 755.114C1970.85 762.397 1975.26 767.954 1980.97 771.725L1982.07 770.056C1976.74 766.535 1972.56 761.311 1969.55 754.323L1967.71 755.114ZM1980.98 771.731C1986.74 775.444 1993.52 777.281 2001.29 777.281V775.281C1993.85 775.281 1987.45 773.525 1982.07 770.05L1980.98 771.731ZM2001.29 777.281C2005.64 777.281 2009.63 776.724 2013.23 775.595L2012.63 773.686C2009.25 774.745 2005.48 775.281 2001.29 775.281V777.281ZM2013.22 775.596C2016.87 774.47 2020.08 772.828 2022.84 770.662L2021.61 769.088C2019.06 771.089 2016.07 772.624 2012.63 773.685L2013.22 775.596ZM2022.85 770.66C2025.66 768.444 2027.95 765.767 2029.74 762.635L2028 761.646C2026.34 764.556 2024.21 767.035 2021.61 769.09L2022.85 770.66ZM2029.73 762.64C2031.57 759.456 2032.83 755.88 2033.52 751.923L2031.55 751.577C2030.9 755.328 2029.71 758.679 2028 761.641L2029.73 762.64ZM2032.53 752.75L2071.6 752.984L2071.61 750.984L2032.55 750.75L2032.53 752.75ZM2070.61 751.889C2069.94 758.84 2067.92 765.701 2064.54 772.475L2066.32 773.369C2069.81 766.393 2071.91 759.295 2072.6 752.08L2070.61 751.889ZM2064.53 772.48C2061.2 779.243 2056.61 785.425 2050.75 791.027L2052.14 792.473C2058.15 786.721 2062.89 780.351 2066.33 773.364L2064.53 772.48ZM2050.76 791.024C2044.92 796.55 2037.8 800.964 2029.36 804.256L2030.09 806.119C2038.74 802.744 2046.09 798.2 2052.13 792.476L2050.76 791.024ZM2029.36 804.257C2021.01 807.536 2011.4 809.187 2000.51 809.187V811.187C2011.6 811.187 2021.46 809.506 2030.09 806.118L2029.36 804.257ZM2000.51 809.187C1986.18 809.187 1973.38 806.045 1962.09 799.782L1961.12 801.531C1972.74 807.976 1985.88 811.187 2000.51 811.187V809.187ZM1962.09 799.784C1950.86 793.477 1941.98 784.296 1935.45 772.212L1933.69 773.163C1940.39 785.558 1949.53 795.023 1961.11 801.528L1962.09 799.784ZM1935.45 772.212C1928.93 760.152 1925.65 745.429 1925.65 728H1923.65C1923.65 745.676 1926.98 760.744 1933.69 773.163L1935.45 772.212ZM1925.65 728C1925.65 710.521 1928.98 695.774 1935.6 683.716L1933.85 682.753C1927.03 695.174 1923.65 710.271 1923.65 728H1925.65ZM1935.6 683.716C1942.24 671.63 1951.19 662.475 1962.48 656.218L1961.51 654.469C1949.87 660.921 1940.65 670.359 1933.85 682.753L1935.6 683.716ZM1962.48 656.218C1973.77 649.953 1986.44 646.812 2000.51 646.812V644.812C1986.13 644.812 1973.13 648.026 1961.51 654.469L1962.48 656.218ZM2000.51 646.812C2010.1 646.812 2018.95 648.153 2027.07 650.825L2027.7 648.925C2019.35 646.18 2010.29 644.812 2000.51 644.812V646.812ZM2027.08 650.827C2035.19 653.447 2042.32 657.294 2048.47 662.365L2049.74 660.822C2043.38 655.581 2036.03 651.616 2027.69 648.923L2027.08 650.827ZM2048.47 662.368C2054.61 667.384 2059.6 673.553 2063.45 680.886L2065.22 679.957C2061.26 672.395 2056.09 666.012 2049.73 660.819L2048.47 662.368ZM2063.45 680.886C2067.29 688.205 2069.68 696.593 2070.61 706.066L2072.6 705.871C2071.65 696.178 2069.2 687.535 2065.22 679.957L2063.45 680.886ZM2093.73 808H2092.73V809H2093.73V808ZM2093.73 648V647H2092.73V648H2093.73ZM2190.84 654.484L2190.39 655.38L2190.4 655.383L2190.84 654.484ZM2211.07 672.922L2210.21 673.431L2210.21 673.433L2211.07 672.922ZM2210.92 729.562L2211.76 730.095L2211.77 730.092L2210.92 729.562ZM2190.29 747.219L2190.7 748.131L2190.71 748.129L2190.29 747.219ZM2116.86 753.234H2115.86V754.234H2116.86V753.234ZM2116.86 722.766V721.766H2115.86V722.766H2116.86ZM2166.07 720.5L2166.43 721.433L2166.44 721.43L2166.07 720.5ZM2175.06 713.469L2175.9 714.014L2175.9 714.007L2175.06 713.469ZM2175.06 689.016L2174.21 689.542L2174.21 689.548L2175.06 689.016ZM2166.07 681.672L2165.69 682.594L2165.7 682.598L2166.07 681.672ZM2132.4 679.172V678.172H2131.4V679.172H2132.4ZM2132.4 808V809H2133.4V808H2132.4ZM2183.81 734.875L2184.69 734.397L2184.4 733.875H2183.81V734.875ZM2223.65 808V809H2225.34L2224.53 807.522L2223.65 808ZM2181.46 808L2180.58 808.471L2180.87 809H2181.46V808ZM2142.4 734.875V733.875H2140.73L2141.52 735.346L2142.4 734.875ZM2094.73 808V648H2092.73V808H2094.73ZM2093.73 649H2159.82V647H2093.73V649ZM2159.82 649C2171.68 649 2181.86 651.14 2190.39 655.38L2191.28 653.589C2182.42 649.183 2171.92 647 2159.82 647V649ZM2190.4 655.383C2198.98 659.572 2205.58 665.586 2210.21 673.431L2211.94 672.413C2207.09 664.216 2200.2 657.938 2191.28 653.586L2190.4 655.383ZM2210.21 673.433C2214.85 681.221 2217.18 690.491 2217.18 701.281H2219.18C2219.18 690.196 2216.78 680.56 2211.93 672.411L2210.21 673.433ZM2217.18 701.281C2217.18 712.228 2214.8 721.462 2210.07 729.033L2211.77 730.092C2216.73 722.142 2219.18 712.522 2219.18 701.281H2217.18ZM2210.07 729.03C2205.34 736.561 2198.62 742.321 2189.88 746.309L2190.71 748.129C2199.78 743.991 2206.81 737.981 2211.76 730.095L2210.07 729.03ZM2189.88 746.307C2181.13 750.247 2170.73 752.234 2158.65 752.234V754.234C2170.95 754.234 2181.64 752.212 2190.7 748.131L2189.88 746.307ZM2158.65 752.234H2116.86V754.234H2158.65V752.234ZM2117.86 753.234V722.766H2115.86V753.234H2117.86ZM2116.86 723.766H2151.46V721.766H2116.86V723.766ZM2151.46 723.766C2157.38 723.766 2162.38 723.001 2166.43 721.433L2165.71 719.567C2161.96 721.019 2157.22 721.766 2151.46 721.766V723.766ZM2166.44 721.43C2170.56 719.803 2173.74 717.337 2175.9 714.014L2174.22 712.924C2172.32 715.851 2169.5 718.072 2165.71 719.57L2166.44 721.43ZM2175.9 714.007C2178.06 710.626 2179.11 706.362 2179.11 701.281H2177.11C2177.11 706.097 2176.12 709.957 2174.22 712.93L2175.9 714.007ZM2179.11 701.281C2179.11 696.2 2178.06 691.913 2175.91 688.483L2174.21 689.548C2176.12 692.577 2177.11 696.467 2177.11 701.281H2179.11ZM2175.91 688.489C2173.75 685.009 2170.58 682.431 2166.45 680.746L2165.7 682.598C2169.48 684.142 2172.3 686.46 2174.21 689.542L2175.91 688.489ZM2166.46 680.75C2162.35 679.017 2157.34 678.172 2151.46 678.172V680.172C2157.16 680.172 2161.89 680.993 2165.69 682.594L2166.46 680.75ZM2151.46 678.172H2132.4V680.172H2151.46V678.172ZM2131.4 679.172V808H2133.4V679.172H2131.4ZM2132.4 807H2093.73V809H2132.4V807ZM2182.93 735.353L2222.77 808.478L2224.53 807.522L2184.69 734.397L2182.93 735.353ZM2223.65 807H2181.46V809H2223.65V807ZM2182.35 807.529L2143.28 734.404L2141.52 735.346L2180.58 808.471L2182.35 807.529ZM2142.4 735.875H2183.81V733.875H2142.4V735.875ZM2224.34 648V647H2222.65L2223.46 648.481L2224.34 648ZM2267.54 648L2268.43 647.549L2268.15 647H2267.54V648ZM2301.37 714.953L2300.47 715.404L2300.75 715.953H2301.37V714.953ZM2302.77 714.953V715.953H2303.39L2303.67 715.404L2302.77 714.953ZM2336.6 648V647H2335.99L2335.71 647.549L2336.6 648ZM2379.8 648L2380.68 648.481L2381.49 647H2379.8V648ZM2321.29 754.562L2320.41 754.081L2320.29 754.306V754.562H2321.29ZM2321.29 808V809H2322.29V808H2321.29ZM2282.85 808H2281.85V809H2282.85V808ZM2282.85 754.562H2283.85V754.306L2283.73 754.081L2282.85 754.562ZM2224.34 649H2267.54V647H2224.34V649ZM2266.65 648.451L2300.47 715.404L2302.26 714.502L2268.43 647.549L2266.65 648.451ZM2301.37 715.953H2302.77V713.953H2301.37V715.953ZM2303.67 715.404L2337.49 648.451L2335.71 647.549L2301.88 714.502L2303.67 715.404ZM2336.6 649H2379.8V647H2336.6V649ZM2378.93 647.519L2320.41 754.081L2322.17 755.044L2380.68 648.481L2378.93 647.519ZM2320.29 754.562V808H2322.29V754.562H2320.29ZM2321.29 807H2282.85V809H2321.29V807ZM2283.85 808V754.562H2281.85V808H2283.85ZM2283.73 754.081L2225.21 647.519L2223.46 648.481L2281.98 755.044L2283.73 754.081ZM2396.02 808H2395.02V809H2396.02V808ZM2396.02 648V647H2395.02V648H2396.02ZM2493.13 655.031L2492.65 655.912L2492.66 655.915L2493.13 655.031ZM2513.36 674.484L2512.49 674.979L2512.49 674.981L2513.36 674.484ZM2513.2 732.375L2512.34 731.87L2512.34 731.872L2513.2 732.375ZM2492.66 751.516L2493.11 752.407L2493.11 752.407L2492.66 751.516ZM2420.16 758.312H2419.16V759.312H2420.16V758.312ZM2420.16 727.844V726.844H2419.16V727.844H2420.16ZM2468.36 724.797L2467.9 723.907L2467.9 723.91L2468.36 724.797ZM2477.34 716.281L2478.22 716.768L2478.22 716.763L2477.34 716.281ZM2477.34 690.578L2476.47 691.065L2476.47 691.07L2477.34 690.578ZM2468.36 682.141L2467.91 683.035L2467.91 683.035L2468.36 682.141ZM2434.69 679.172V678.172H2433.69V679.172H2434.69ZM2434.69 808V809H2435.69V808H2434.69ZM2397.02 808V648H2395.02V808H2397.02ZM2396.02 649H2462.11V647H2396.02V649ZM2462.11 649C2473.96 649 2484.13 651.318 2492.65 655.912L2493.6 654.151C2484.73 649.37 2474.22 647 2462.11 647V649ZM2492.66 655.915C2501.24 660.464 2507.85 666.816 2512.49 674.979L2514.23 673.99C2509.39 665.486 2502.51 658.869 2493.59 654.148L2492.66 655.915ZM2512.49 674.981C2517.13 683.089 2519.47 692.549 2519.47 703.391H2521.47C2521.47 692.254 2519.07 682.442 2514.23 673.988L2512.49 674.981ZM2519.47 703.391C2519.47 714.282 2517.08 723.764 2512.34 731.87L2514.07 732.88C2519.01 724.424 2521.47 714.583 2521.47 703.391H2519.47ZM2512.34 731.872C2507.65 739.926 2500.95 746.176 2492.2 750.624L2493.11 752.407C2502.18 747.793 2509.17 741.282 2514.07 732.878L2512.34 731.872ZM2492.2 750.624C2483.47 755.07 2473.05 757.312 2460.94 757.312V759.312C2473.3 759.312 2484.03 757.024 2493.11 752.407L2492.2 750.624ZM2460.94 757.312H2420.16V759.312H2460.94V757.312ZM2421.16 758.312V727.844H2419.16V758.312H2421.16ZM2420.16 728.844H2453.75V726.844H2420.16V728.844ZM2453.75 728.844C2459.69 728.844 2464.73 727.81 2468.82 725.684L2467.9 723.91C2464.17 725.847 2459.47 726.844 2453.75 726.844V728.844ZM2468.82 725.687C2472.94 723.571 2476.08 720.598 2478.22 716.768L2476.47 715.795C2474.54 719.256 2471.7 721.96 2467.9 723.907L2468.82 725.687ZM2478.22 716.763C2480.34 712.895 2481.39 708.428 2481.39 703.391H2479.39C2479.39 708.145 2478.41 712.272 2476.47 715.8L2478.22 716.763ZM2481.39 703.391C2481.39 698.304 2480.35 693.857 2478.21 690.086L2476.47 691.07C2478.4 694.487 2479.39 698.581 2479.39 703.391H2481.39ZM2478.22 690.091C2476.08 686.259 2472.93 683.31 2468.81 681.246L2467.91 683.035C2471.7 684.93 2474.54 687.606 2476.47 691.065L2478.22 690.091ZM2468.81 681.246C2464.67 679.18 2459.64 678.172 2453.75 678.172V680.172C2459.42 680.172 2464.13 681.143 2467.91 683.035L2468.81 681.246ZM2453.75 678.172H2434.69V680.172H2453.75V678.172ZM2433.69 679.172V808H2435.69V679.172H2433.69ZM2434.69 807H2396.02V809H2434.69V807ZM2534.3 679.406H2533.3V680.406H2534.3V679.406ZM2534.3 648V647H2533.3V648H2534.3ZM2669.53 648H2670.53V647H2669.53V648ZM2669.53 679.406V680.406H2670.53V679.406H2669.53ZM2621.02 679.406V678.406H2620.02V679.406H2621.02ZM2621.02 808V809H2622.02V808H2621.02ZM2582.89 808H2581.89V809H2582.89V808ZM2582.89 679.406H2583.89V678.406H2582.89V679.406ZM2535.3 679.406V648H2533.3V679.406H2535.3ZM2534.3 649H2669.53V647H2534.3V649ZM2668.53 648V679.406H2670.53V648H2668.53ZM2669.53 678.406H2621.02V680.406H2669.53V678.406ZM2620.02 679.406V808H2622.02V679.406H2620.02ZM2621.02 807H2582.89V809H2621.02V807ZM2583.89 808V679.406H2581.89V808H2583.89ZM2582.89 678.406H2534.3V680.406H2582.89V678.406ZM2727.09 648H2728.09V647H2727.09V648ZM2727.09 808V809H2728.09V808H2727.09ZM2688.42 808H2687.42V809H2688.42V808ZM2688.42 648V647H2687.42V648H2688.42ZM2726.09 648V808H2728.09V648H2726.09ZM2727.09 807H2688.42V809H2727.09V807ZM2689.42 808V648H2687.42V808H2689.42ZM2688.42 649H2727.09V647H2688.42V649ZM2892.23 772.766L2891.35 772.282L2891.35 772.282L2892.23 772.766ZM2864.73 800.656L2864.24 799.78L2864.24 799.781L2864.73 800.656ZM2787.15 800.578L2787.63 799.704L2787.63 799.704L2787.15 800.578ZM2759.73 772.687L2758.85 773.169L2758.85 773.173L2759.73 772.687ZM2759.73 683.234L2758.85 682.75L2758.85 682.753L2759.73 683.234ZM2787.15 655.344L2787.63 656.219L2787.63 656.219L2787.15 655.344ZM2864.73 655.344L2864.24 656.219L2864.24 656.22L2864.73 655.344ZM2892.23 683.234L2891.35 683.718L2891.35 683.718L2892.23 683.234ZM2858.4 701.594L2857.47 701.97L2857.47 701.976L2858.4 701.594ZM2845.74 685.266L2845.18 686.094L2845.19 686.096L2845.74 685.266ZM2806.21 685.266L2806.77 686.096L2806.77 686.096L2806.21 685.266ZM2793.48 701.594L2792.55 701.212L2792.55 701.218L2793.48 701.594ZM2793.48 754.406L2792.55 754.782L2792.55 754.788L2793.48 754.406ZM2806.21 770.734L2806.77 769.904L2806.77 769.904L2806.21 770.734ZM2845.74 770.734L2845.19 769.904L2845.18 769.906L2845.74 770.734ZM2858.4 754.406L2857.47 754.024L2857.47 754.03L2858.4 754.406ZM2901.38 728C2901.38 745.478 2898.02 760.224 2891.35 772.282L2893.1 773.25C2899.97 760.828 2903.38 745.73 2903.38 728H2901.38ZM2891.35 772.282C2884.67 784.366 2875.63 793.522 2864.24 799.78L2865.21 801.533C2876.95 795.082 2886.25 785.644 2893.1 773.25L2891.35 772.282ZM2864.24 799.781C2852.89 806.046 2840.15 809.187 2825.98 809.187V811.187C2840.45 811.187 2853.54 807.975 2865.21 801.532L2864.24 799.781ZM2825.98 809.187C2811.76 809.187 2798.98 806.02 2787.63 799.704L2786.66 801.452C2798.33 807.948 2811.45 811.187 2825.98 811.187V809.187ZM2787.63 799.704C2776.3 793.394 2767.29 784.236 2760.6 772.202L2758.85 773.173C2765.71 785.514 2774.98 794.95 2786.66 801.452L2787.63 799.704ZM2760.6 772.206C2753.98 760.147 2750.65 745.426 2750.65 728H2748.65C2748.65 745.678 2752.03 760.748 2758.85 773.169L2760.6 772.206ZM2750.65 728C2750.65 710.521 2753.98 695.774 2760.6 683.716L2758.85 682.753C2752.03 695.174 2748.65 710.271 2748.65 728H2750.65ZM2760.6 683.718C2767.29 671.633 2776.3 662.477 2787.63 656.219L2786.67 654.468C2774.98 660.919 2765.71 670.357 2758.85 682.75L2760.6 683.718ZM2787.63 656.219C2798.98 649.954 2811.75 646.812 2825.98 646.812V644.812C2811.45 644.812 2798.34 648.025 2786.67 654.468L2787.63 656.219ZM2825.98 646.812C2840.15 646.812 2852.89 649.954 2864.24 656.219L2865.21 654.468C2853.54 648.025 2840.45 644.812 2825.98 644.812V646.812ZM2864.24 656.22C2875.63 662.478 2884.67 671.634 2891.35 683.718L2893.1 682.75C2886.25 670.356 2876.95 660.918 2865.21 654.467L2864.24 656.22ZM2891.35 683.718C2898.02 695.776 2901.38 710.522 2901.38 728H2903.38C2903.38 710.27 2899.97 695.172 2893.1 682.75L2891.35 683.718ZM2863.85 728C2863.85 717.494 2862.36 708.554 2859.32 701.212L2857.47 701.976C2860.38 709.008 2861.85 717.672 2861.85 728H2863.85ZM2859.33 701.218C2856.35 693.877 2852.01 688.262 2846.3 684.435L2845.19 686.096C2850.51 689.665 2854.62 694.936 2857.47 701.97L2859.33 701.218ZM2846.3 684.437C2840.64 680.61 2833.85 678.719 2825.98 678.719V680.719C2833.52 680.719 2839.9 682.526 2845.18 686.094L2846.3 684.437ZM2825.98 678.719C2818.15 678.719 2811.36 680.61 2805.65 684.435L2806.77 686.096C2812.1 682.525 2818.49 680.719 2825.98 680.719V678.719ZM2805.65 684.435C2799.94 688.26 2795.58 693.874 2792.55 701.212L2794.4 701.976C2797.31 694.939 2801.44 689.667 2806.77 686.096L2805.65 684.435ZM2792.55 701.218C2789.57 708.558 2788.1 717.496 2788.1 728H2790.1C2790.1 717.671 2791.55 709.005 2794.4 701.97L2792.55 701.218ZM2788.1 728C2788.1 738.504 2789.57 747.442 2792.55 754.782L2794.4 754.03C2791.55 746.995 2790.1 738.329 2790.1 728H2788.1ZM2792.55 754.788C2795.58 762.126 2799.94 767.74 2805.65 771.565L2806.77 769.904C2801.44 766.333 2797.31 761.061 2794.4 754.024L2792.55 754.788ZM2805.65 771.565C2811.36 775.389 2818.15 777.281 2825.98 777.281V775.281C2818.49 775.281 2812.1 773.475 2806.77 769.904L2805.65 771.565ZM2825.98 777.281C2833.85 777.281 2840.64 775.39 2846.3 771.563L2845.18 769.906C2839.9 773.474 2833.52 775.281 2825.98 775.281V777.281ZM2846.3 771.565C2852.01 767.738 2856.35 762.123 2859.33 754.782L2857.47 754.03C2854.62 761.064 2850.51 766.334 2845.19 769.904L2846.3 771.565ZM2859.32 754.788C2862.36 747.446 2863.85 738.506 2863.85 728H2861.85C2861.85 738.328 2860.38 746.992 2857.47 754.024L2859.32 754.788ZM3061.13 648H3062.13V647H3061.13V648ZM3061.13 808V809H3062.13V808H3061.13ZM3028.32 808L3027.5 808.568L3027.8 809H3028.32V808ZM2964.65 715.656L2965.47 715.089L2965.17 714.656H2964.65V715.656ZM2963.63 715.656V714.656H2962.63V715.656H2963.63ZM2963.63 808V809H2964.63V808H2963.63ZM2924.96 808H2923.96V809H2924.96V808ZM2924.96 648V647H2923.96V648H2924.96ZM2958.24 648L2959.07 647.436L2958.77 647H2958.24V648ZM3021.21 740.187L3020.39 740.752L3020.68 741.187H3021.21V740.187ZM3022.54 740.187V741.187H3023.54V740.187H3022.54ZM3022.54 648V647H3021.54V648H3022.54ZM3060.13 648V808H3062.13V648H3060.13ZM3061.13 807H3028.32V809H3061.13V807ZM3029.14 807.432L2965.47 715.089L2963.83 716.224L3027.5 808.568L3029.14 807.432ZM2964.65 714.656H2963.63V716.656H2964.65V714.656ZM2962.63 715.656V808H2964.63V715.656H2962.63ZM2963.63 807H2924.96V809H2963.63V807ZM2925.96 808V648H2923.96V808H2925.96ZM2924.96 649H2958.24V647H2924.96V649ZM2957.42 648.564L3020.39 740.752L3022.04 739.623L2959.07 647.436L2957.42 648.564ZM3021.21 741.187H3022.54V739.187H3021.21V741.187ZM3023.54 740.187V648H3021.54V740.187H3023.54ZM3022.54 649H3061.13V647H3022.54V649Z" fill="white" mask="url(#path-12-outside-1_1_20)"/>
</svg>
